<mxfile host="app.diagrams.net" modified="2024-04-18T01:14:18.391Z" agent="Mozilla/5.0 (Windows NT 10.0; Win64; x64) AppleWebKit/537.36 (KHTML, like Gecko) Chrome/123.0.0.0 Safari/537.36" etag="EDgUXy595UHWgHJmnCbG" version="22.1.20" type="github">
  <diagram name="페이지-1" id="OwyKKwrcBRoz1lzDuzbX">
    <mxGraphModel dx="2514" dy="962" grid="0" gridSize="10" guides="1" tooltips="1" connect="1" arrows="1" fold="1" page="1" pageScale="1" pageWidth="827" pageHeight="1169" math="0" shadow="0">
      <root>
        <mxCell id="0" />
        <mxCell id="1" parent="0" />
        <mxCell id="9cq7SxsJMmVzWgC3gyxr-28" value="" style="edgeStyle=orthogonalEdgeStyle;rounded=0;orthogonalLoop=1;jettySize=auto;html=1;exitX=1;exitY=0.25;exitDx=0;exitDy=0;" edge="1" parent="1" source="9cq7SxsJMmVzWgC3gyxr-3" target="9cq7SxsJMmVzWgC3gyxr-15">
          <mxGeometry relative="1" as="geometry">
            <mxPoint x="293" y="89" as="sourcePoint" />
            <mxPoint x="423" y="787" as="targetPoint" />
          </mxGeometry>
        </mxCell>
        <mxCell id="9cq7SxsJMmVzWgC3gyxr-51" value="" style="group" vertex="1" connectable="0" parent="1">
          <mxGeometry x="1" y="168" width="826" height="844" as="geometry" />
        </mxCell>
        <mxCell id="9cq7SxsJMmVzWgC3gyxr-5" value="" style="shape=image;html=1;verticalAlign=top;verticalLabelPosition=bottom;labelBackgroundColor=#ffffff;imageAspect=0;aspect=fixed;image=https://cdn1.iconfinder.com/data/icons/operating-system-flat-1/30/ubuntu-128.png" vertex="1" parent="9cq7SxsJMmVzWgC3gyxr-51">
          <mxGeometry x="-11" y="49" width="128" height="128" as="geometry" />
        </mxCell>
        <mxCell id="9cq7SxsJMmVzWgC3gyxr-22" value="" style="swimlane;startSize=0;" vertex="1" parent="9cq7SxsJMmVzWgC3gyxr-51">
          <mxGeometry x="46" y="107" width="766" height="735" as="geometry" />
        </mxCell>
        <mxCell id="9cq7SxsJMmVzWgC3gyxr-34" value="" style="swimlane;startSize=0;" vertex="1" parent="9cq7SxsJMmVzWgC3gyxr-22">
          <mxGeometry x="75" y="102" width="200" height="200" as="geometry" />
        </mxCell>
        <mxCell id="9cq7SxsJMmVzWgC3gyxr-31" value="" style="image;sketch=0;aspect=fixed;html=1;points=[];align=center;fontSize=12;image=img/lib/mscae/Cache_Redis_Product.svg;" vertex="1" parent="9cq7SxsJMmVzWgC3gyxr-34">
          <mxGeometry x="12.56" y="44" width="79.76" height="67" as="geometry" />
        </mxCell>
        <mxCell id="9cq7SxsJMmVzWgC3gyxr-36" value="&lt;font style=&quot;font-size: 20px;&quot;&gt;&lt;b&gt;Redis&lt;/b&gt;&lt;/font&gt;" style="text;html=1;align=center;verticalAlign=middle;resizable=0;points=[];autosize=1;strokeColor=none;fillColor=none;" vertex="1" parent="9cq7SxsJMmVzWgC3gyxr-34">
          <mxGeometry x="16.939999999999998" y="123" width="71" height="36" as="geometry" />
        </mxCell>
        <mxCell id="9cq7SxsJMmVzWgC3gyxr-37" value="" style="swimlane;startSize=0;" vertex="1" parent="9cq7SxsJMmVzWgC3gyxr-22">
          <mxGeometry x="425" y="96" width="292" height="215" as="geometry" />
        </mxCell>
        <mxCell id="9cq7SxsJMmVzWgC3gyxr-39" value="&lt;font style=&quot;font-size: 20px;&quot;&gt;&lt;b&gt;Mysql&lt;br&gt;&lt;/b&gt;&lt;/font&gt;" style="text;html=1;align=center;verticalAlign=middle;resizable=0;points=[];autosize=1;strokeColor=none;fillColor=none;" vertex="1" parent="9cq7SxsJMmVzWgC3gyxr-37">
          <mxGeometry x="15.939999999999998" y="123" width="74" height="36" as="geometry" />
        </mxCell>
        <mxCell id="9cq7SxsJMmVzWgC3gyxr-42" value="" style="shape=image;imageAspect=0;aspect=fixed;verticalLabelPosition=bottom;verticalAlign=top;image=data:image/png,iVBORw0KGgoAAAANSUhEUgAAAgAAAAEACAYAAADFkM5nAAAuH0lEQVR42u3deXxcZb3H8c/vTJbSBWlZZN8EEdJS2nJBwCuiIHJdULCAuFVpk7SVSrMVvHrvePUC7SQptLZN0gJ1AyzXfQVRdgSxKdAGRFBZBUGg0IUmzZzf/SMtJGma5kwmOTPJ9/169Y95zvM883tOmsxvznnO84CIiIiIiIiIiIiIiIiIiIiIiIiIiIiIiIiIiIiIiIiIiIiIiIiIiIiIiIiIiIiIiIiIiIiIiIiIiIiIiIiIiIiIiIiIiIiIiIiIiIiIiIjI0GRxByAikj1ulNWdDpwBHA2MBN+C2wsErMODu2icuxrM445UJG5KAERkaCivm4T7d4DxvdZz/oHxC4wfse/G35JMhnGHLhIHJQAikv9Ka9+D8VtgRMSWjwNL8PaVNF36WtzDEBlMSgBEJL9dVD+OwvSfcdu7H71sABbi7fVKBGS4SMQdgIhIv5x4xn/hdmY/eykGTsWCUqac4Rx+yp945PZ03EMTGUi6AiAi+Wtqsohxo58HxnUqfQa4nHTBjyls3YMweBfOWQScE+EqwV/w8GKaam6Je4giA0UJgIjkr9LUiZjd16XM7f00Vd62Q92LFxXTtnUq+CXAlL69gdfzyiE13HSergbIkKMEQETyV2ndVMxXdSp5nsbKA3b5mN/MBf9OGFwCnM2ub4XeTGviAlbOXR/3cEWyKYg7ABGRjJl3/2Ze2Kd2y2ruorHqXNJ+JO6NwNZeap9Jcfp+yuqPj3u4ItmkKwAikr9K6ydg4cNdC/1kGqv/EKmfsgVHQmI++Cd6qRUCfwRew3gdt/W4b8TYALYB9yeAu2mq+lfcp0WkL5QAiEgec6Os7hnggLfKbDmNlaUZdTez7mOE/i3goEwDAtYBtwN30lZ0B9fNeSnusyTSEyUAIpLfymqXALM6lbSTSBzL0rmPZtRfeWof3H4CnJSF6Bx4COcmCoJVLK14Iu7TJbKd5gCISH4LEnVAe6eSAtLhVeCZfcFpqH6R1o3vB27IQnQGHIfxv6TDxymru5Oyuv/IODaRLNJ/QhHJf+W1y3Gmdyu9hMaqq/vVb1nqIty+hnFIliN+CLe5PT6uKDJIlACISP4rrd2LwB/pttBPKyH/zvKqB7LyHlNXJdjzuYPw8B3g+wBjwMdCMHbb6xLgWPq+H4GDf590YRUrLvln3KdQhh8lACIyNJSnzsPtB10L7WncpwzazPypySL2GvMh0uHnMPsIHUsM78qrwFfYb2OTdiaUwaQEQESGjrK6JvAZ3Up/yysHnzXoq/nNvGIs6aILwS/BOKIPLe4nDMtZXvPgoMYpw5Y2AxKRoeO9H7qVrf5hYN9Ope9gxPoEq3/7+0GN5U+/28LqWx7goycvYVPhQxAcCBzcS4sDMbuI4z9ofPTke7j9dl0NkAGlKwAiMrTMrj2EdprpukFQiPkZNFQPbhLQ3YzU6QRcAdb7qoLGA4R8jqaqP8carwxpSgBEZOjpWNDnJ3T9G/cMwdaJLLvs1XiDc6Os7lzgSuAdvVR8A/dLaapavMu9DUQyoHUARGToWVb5M6C2W+lBeGFj3KGBOY1V/0frxvG4/Rfwxk4q7obZ1ZTV/ZZZC/aN8g4ifaErACIyNJU2FhJsuB3n5C7l7p+mqfr6uMN7U/nCQ/F0A3DmTus4/wDOp6nq7rjDlaFDCYCIDF2z6g4i7c3AXm+Wmb9EaMfk1qY9bpTVlQEpYPROKm0Fqvu9uJHINkoARGRo65gP8NNupYtprJoTqZ9pC/dgRPoqQiZhjAM2YsHnaaj4Y/ZiXXg4YbgS/N93Wse5kYLdZrB09sbBO4kyFGkOgIgMbR3zAVZ2Ky1jeuqwSP2snLue0LdgHAscCLwLD++ivG5a9mKd+zf22/A+8Evpur/BW4wLSL9xL7PqMt2xUARQAiAiw0F7UEnHinvbFZGwmZH7GZWYC/yxSz/uyylPjc9arMlkSGP1fNw+CLy4k1oTSPu9WX1fGXaUAIjI0HdNxSsYV3YpM5/GxYv6slTvWxZWvIEnPg4806m0AA/qsh5zU+VtpNNTgPt3UuNA3O5iRv2pA3nqZOhSAiAiw0Nr0XXAW8sBu+3N1tZPRO6nae7zmJ3dpS/8g0xbuEfWY14x71mKik4FmnZSYw+C8GbKU+cN5KmToUkJgIgMD9fNeQnr9m3arTSjvhoq1wA/7FSyhZWXvDYgcS+e00pjVRnOZUBPCwIV43YD5akZUbuW4U0JgIgMHyE/71ZyKqUL98usM7ucNz+Q7c4BX62vqepKnC/Q8ThgdwFuDVmdkChDnhIAERk+POieAAQQnpNRX42VDwG/BBwL5w9K/E1V3ybkbGBTD0cD3FdQmrpwUGKRvKcEQESGj+UVLcBfu5SZn5t5h345MGtQNxlaXvVrAjsd6OmWQwKzb1NaN3XQ4pG8pYWARGR4Kau7HPyyTiVpzPenofrFjPuMw4y6kwn8ZnpeOXArZufQUPmLuMOU3KUrACIyvCSC73YvAc6OO6zIllfei4UfAnpaEbAQ9xsoq5sYd5iSu5QAiMjwsnTuozgPdy206I8D5oKGmnvAPk7POwqOxv1XlNcfEHeYkpuUAIjI8BPw/S6vnQ9QeuXb4g4rI42VvyOwC+iyLsE2xv4Q/pi59bvFHabkHiUAIjL8BHYDEHYqKSIo+EjcYWVsWeXPcK/q8Zjzb7wRfhtcc76kCyUAIjL8LK18Bri7S5n7Z+IOq1+aqq8ClvZ4zJlKad1lkfqTIU8JgIgMU/6drq/tg3m/w94rB8+BHRY72jY8vk75glPiDlFyhxIAERmeEiN/AGzoVBLQ7p+OO6x+uem8NEVFnwH+0sPRAjxxPTOvGBt3mJIblACIyPC0dPZGjB90KTOm5f298sVzXgc7D9iy40E/mLDomrhDlNygBEBEhq8wXNat5ChK6/JvTYDuOpYpntvzQf8EpXWz4w5R4qcEQESGr6aaZoxbu5QZ/533VwEAGqsagFU9HjOvZdbCo+MOUeKlBEBEhrcwTHUrOY6yuvxcGKi7oqIZwN96ODKCdLicZFKfAcOYfvgiMrw1Vf8W+EO30lpKkyPjDq3fFs95HfMZvLltcWd+Cs+P1q2AYUwJgIgMc+YEVkHXD8nDCEZ/Le7IsqKh+vcYO5v4dwXTU4fFHaLEQwmAiMiyyvvAftKlzKlkxoLj4g4tK7YkqnH+0cORURTYkrjDk3goARARAUiHlcCmTiWFBMHPmV17SNyh9dvKuesxn9XjMecsymvze/0DyYgSABERgBXVf8f9q91KD2QrdwyJy+SN1T8F+2mPx0IWDIk5DxKJEgARke1ePWQx3ScEGoeQsN9w8aLd4w6v30JqgK07lBv7Y6Mujjs8GVxKAEREtrvpvDRtRWcDa7sdeSdtbZVxh9dvyyv/gtmyng/aPL44f0zcIcrgUQIgItLZdXNeIl1wBvBcl3LnwrhDy4pE6/8Ar/ZwZCyFiWlxhyeDRwmAiEh3Ky75J1h9lzJjt7jDyoolX3kZ7Js7OXqxFgcaPvSDFhHpUXhAt4JH4o4oa0baMuDlHo4cyXOjz4w7PBkcSgBERLq7qH4c2MwuZW53xR1W1iyseANsRY/HAmZG7E3ylBIAEZHuCvwM6HbJ3/yOuMPK8hiXAekejvzHkFj7QHZJCYCISHfmp3d57fyDVw6+J+6wsmpJ1VM4v+zhSII0pXGHJwNPCYCISHfOv3d5bX49N52XzrC33BXY8p2cgBlcvKg47vBkYCkBEBHp7AuL9gbe2bUw+F7cYQ2Ilw/6NfDMDuVue7O17ZNxhycDSwmAiEhnhW2nAPbma+dhGisfijusAXHTeWmchh6POXPjDk8GlhIAEZHOzE7t8jrg+3GHNKASW5cBG3s4MoUZ9adG7U7yhxIAEZHO3N/freBXcYc0oJZd9ipOz3MBLKyIOzwZOEoARES2K0/tgzGhU8mLNFS1xB3WgAvT9fS8SdBHmbXw6LjDk4GhBEBE5C3vo/P9f7gNzOMOasCtmPcs+A96OGKk03PiDk8GhhIAEZE32aSur31oTv7riScWAD0kO/Y5Smv3ijs8yT4lACIi24V+ZJfXbo/GHdKgaapYC37zjgd8JEZ53OFJ9ikBEBHZzqzr8/8FicfiDmlQebBgJ0dmMy05Iu7wJLuUAIiIANu2wT2iS9mWtmfjDmtQNVXeBtzXw5F9GTFqetzhSXYpARARAXipaCxdNwBq5dp5G+IOa9CZ1fZY7naplgceWpQAiIgApHcb063kX3GHFIt9N/wY+EsPRw6gre2iuMOT7FECICICQPvobgWb4o4oFslkCNTt5KiuAgwhSgBERACcMf3vZJvy1AV8NjUq7iFlrHXjd4AXejhyEG1tX4g7PMkOJQAiIgBhoqhbiWXUT3ntmbh9j5GWv5PmVia34Fzd80G7jKnJomgdSi5SAiAiAhDscMk/EbmPmQsPx7l+W9vz4x5Sv7QlGoDXdzzgBzNu9LS4w5P+UwIgIgKQsO4JwNhI7aclRxCmfwiM21bybmbVHRT3sDK2cu56bCebBMFlJJMFcYco/aMEQEQEgLD7lrhvY+qqvl8FKB5dCxzXqcQIwxlxj6pfAruanjYJgkN5YXR+X+EQJQAiIgAkCl/rVhIw+oVxfWpbVjcRmLlDuVtpXt8vX1r5DPgNPR4LqQHPbJ6E5AQlACIiAIvnvA683KWssPXwvjX2b9Dz39O3s+foqXEPrV88UUtPmwQZxzKj7kNxhyeZUwIgIvKWv3Z9ae/aZYvZtYcAH97pcedLcQ+qX5oq1mL8psdjCb4ad3iSOSUAIiJv6ZoAmB21yxZpzqf3v6Xvpix1UtwD65eQy3ssd06mLPXRuMOTzCgBEBHZzq3b7n9+wq7bcNauO7bL4h5avzRV3Y3zs52M7Wq+OD97iyjJoFECICKynYf3dC2wkyhtLNxp/Y6nBP6tDz1/hNL6CXEPr1+My4B0D0cOo6igIdITE5ITlACIiGy3hT/Q5bE3H4m9fvxO6499+kigpyV//47zVKfXhoXz4h5evzRWPYLbsh6PuV/IuKfvpTx1AdOSI+IOVfpGCYCIyHbfrd4ENHcr/eRO6xuTdnLkZowF3crOp3TBO+IeYr8UjLiMHSZKvukE3G6gePQ/KK+7mumpw+IOV3qnBEBEpDPzW7q8drugl8vbx/RY6v4YRUXXAM91Ki3Agm/EPbx+WTp7I/BFIOyl1ljc55CwxymvXUVp6sS4w5aeKQEQEekstOu7vDb2Z8+nT++5sh/cY7FZC4vntALzux05n/K6nV01yA+NVXfiXknvSQBAAmcqZvdRVnsXM+s+RjKpz5wcoh+GiEhnTVV/xnigS5kzu+fK1nMCkAjXAtC6cTnwfKcjAe5XxD3E/p+j6qtwP3nbkwHpPrR4D6H/lH+MWkdp7ec1YTA3KAEQEenO+W63kg9TWtvTokA7JgDmL7G05gVg27a63n0uwJmUp94f9xD7ran6fpqqziadPhT4GljzLtuYHY2xknFPr2ZG6vRd1pcBpQRARKS7xG7XAS92Kgkwut6/77icfeAObd1aurwelWgEXuhWp27IfAteMe9ZGqu+SWPlFLz9EGAO2F30fotgIoH9lrLa7zH78j3jHsJwpQRARKS7pbM3YlzZrfTcLt9aX9h9P6CHjX7s8S4vF1a8gVPbrdJxjHs6v3cK7EnTpU/TWLWYxsr3YsHBGPNwf7SXFp+mvegRSuvye7+EPKUEQESkJ1s2LqPrLH4jsBuZUdux8I+nD95Jy7/sUNK2cQnwULfSb3BRfd92G8xHDRXP0VC1gKbqY3B/N+6NwGs91NwH81WUpv6P0tq94g57OFECICLSk5XJLZiV03UnvD0JuIey2iUQnNdzw/CxHvtyLgA2dSrdi4IwGfcwB0VT9f00VZezNX0Q+FfoKREwOxd4SHMDBo/2chYR6U1Z7TKgvI+10wRb92bZZa/2eLS8bhru13UqacfsBBoq18Q9zEE1ff6BJBIN9LyLYgjU8crGr3JTsi3uUIcyXQEQEenNyKAC494+1v7NTj/8ARoqV+Jc26mkAGcFyWRB3MMcVB0TBz8C9lng5W5HA6CacaPuoXzhoXGHOpQpARAR6c3CijfYGnwUuH8XNVsJ+O9d9rf/xjLgF28V+GT+MWpu3MOMRWPl90gXlOD+wx0P2vF4ejVl9R+KO8yhSrcARET6YtaS0bRvrsWslB3/dr6K+UU0VP+4T32VJkdiY24BP6WjwDbj6WNpqvlrn9oPRWV1nwNfDOze7UgIfJ39Nn6TZHJXqw9KBEoARESiKE+NJ7TPYrwT9zSB3UNr0fe4bs5LkfqZecVYwsI7gO3bBN/Ofhs/MKw/5KanDiMRfPetxKiLn7M1/Wmunbch7jCHCiUAIiJx6UgCfgmcBIAxj4aqBf3rNM9NXZVg3FNVYP/DjussrCPtH2NF9d/jDnMoUAIgIhKnz6ZGMdJ+DJwBbCXkFJZXPdDfbvPezNSxhFwDdny3Iy8TBueyvOKOuEPMd5oEKCISp+9Wb6J148e2baxTSMB3KE2OjDus2C2rfpj9Np2EcxmwpdORPQnCmylLnR13iPlOVwBERHLB1FUJxj59OUYN2DU0Vk6PO6ScMaPunQS+CpjYqbQV7MM0Vv4u7vDylRIAEZFcUpq6ELMVmM2lobIx7nByRsetkmuBziswvkza/01zAjKjBEBEJNeU1R+Ph/+H+adorP5D3OHkjGSygOdH3wa8561Ca6Z1wymsTG7JuN9hSgmAiEgump46jISthHA6jTWP97u/XDZt4R6MaJ+MBwfi4dvB9sN8b7C9Mbpum+wcAhzZrYeVNFZ9Ie5h5BslACIiuap04X5YuJIE01la+Uzc4WRN+cJD8fAc8BOBKcA7+t+pX0pj9fy4h5ZPlACIiOSy8voD8HAR6YJZrLjkn3GHk7Hp8w8kCD6J2QXACWT38+d53BfSVJ2Ke5j5RAmAiEium7ZwD4rbFxMES1hWeV/c4fTZF+ePoTDxZbBPgE8ie585bcBq4Fd4+CuaqteAeX87HW6UAIiI5IOOxwS/QCJ9F8vmPRZ3OLvmRlndWqAkww7SwBPgf8d5CuMpnKdwfwR7WwtNZVvjHmG+UwIgIiLZN3VVgnFPPwBM6mOLrZjfi3Mz5neyyR7ku9Wb4h7GUKYEQEREBkZp7ccxdrZD4uuY/YIwfBCzB0ns9geWzt4Yd8jDSUHcAYiIyBC1/8af8fzox4Cjejg6iiD4Jg2Vj8Yd5nClvQBERGRgJJMhzqU7OZogbF/GxYuK4w5zuEr0vwsREZGdWH3Lnzn+g/vT8bx/N3Yo6fR43vuhn3Hfze1xhzrc6AqAiIgMrM1eAfx5J0c/zubwLmYuPDzuMIcbTQIUEZGBN6O+hCC8Exi3kxobMKtm3w3LSSbDuMMdDpQADITSKw8mSBzRsa61H4h5Gmwz2KsE7Q/kxzO8fTQ9dRgBJxEwDmcUFhQQ+rOYPUuBP8GSqqfiDlFEcsSMupMJ/FfA23qp9UcIZtNY8ae4wx3qlABkQ8cqXZ/A7TTgvRiH9Frf/CWc75IIrsrL9b2/sGhvitq+BFwEHNB7ZXsa9zswv43Wgh+zcu76uMMfjh5fdETx5jdGHpoOfJw5Y4FRbx4MwreFBLHeDrQw3DK5puU7A9H3g/UTD0hvTe/uQbh7QGLMQI4jJL2hIM3GdmzD3w4/5rnzzrspne33aK4rmegenNjX+mb218mVD/9uIMcdSXlqPKH9Yhd/J0NgBQVtX2HJV16OO+ShSglAf0xbuAcjwq/jXgqMyKCHrbh9g/03/G/eXPIqqy0HqwMfmUHrLbitoLA1qV/qgfXwFRPGbi3g4+acQRCehNvB5Pacn5cnV6/bq7+drFl43B6e3noW2Ek4xwITgT1iGtMbwDrHHgwIH/Cw/ZeT5z32j/52unpBSY2Z9X3TG7cbJtesvTCmc9Czi+rHURCuBD66i5r/6tjkp+paLfWbfUoAMjWr/gjS4S3AYf3uy/g1Wzaek9P7WSeTAc+PvgaYloXensX8LBqq18U9rKFmdW3JmYRWbsZZQD49XpVxAvD4oiOKN7YVf9ZDLsDsvUBh3IPZCcd4wEJuSofFy4+/dPVrmXQyJBKAbYFRWleBcQW7+pmZ30FY8Cma5j4fd9RDSS5/I8hdc+t3Ix3+kmx8+AM4Z1E8+lrw3E3Inh81n+x8+AMciNuvKb3ybf3vSgBWp0re35wa/0dz+40ZHye/Pvwzclvy0BGrF5TUbGgd8Xd3W47ZB8jdD38AwznBjVSQaH26OVVy5cNXTBgbd1Axng6nqaqOgJOAR3qt6nYqlm5mRv2pcUc9lCgByMRmnw28M8u9foqyui/FPbQeldWeA1aV5V4PxArnxT20fHdv/Um7NafGLzXsVuDf4o5nsKxOjT9291GjH9j2TXi/uOPJwO5g89oL/OEH55ecFncwsVpWtZrWjVPA6+m4978z+xKEt1JaNzPukIcKJQAZ8c8MUMf/zbSFe8Q9ui46VukaoD22/bNxDy+ftSwpGV0cbvglMJNhdDtvde34cwz+aDA+7liy4MAwsFtXpybkZvI/WFYmt9BYXYnZ8Ri39lKzAPOllKa+mdNXTPOEEoCoPpsaBUwYoN73pDhdGfcQu2htLQMGaoGOA5k+/8C4h5iP3LHWzXa9OcPq2+ODC8Z/0JzrGVq3OALDFzXXjldC3FC5hoaqMzA+BNy303pm/0l5XRPJpD7D+kEnL6rd7CAG9ryVM7d+t7iHCUAyWYDZ3AF9jyBxaNzDzEcP1pVcxK5nUA8pzZdP2js0fsDQ+vDfznBWrFlw9JFxB5ITGqpuprHqJMxPA27usY4znRdGfUtXAjKn3QCjsmB077epdtBKtD9Ye7Ep/DSwIu6h8sKoc4BDI7aKNl6z3eMeZr5ZtWpqwp9+5D/70cXrwOPAUxhZf049Qxt2VcEK2r7p2B79fSOHDWb2NKFvwMjW9rMjt/07lMwfOywiSNQzzBK7XjVU3w7cTumCyVhwGXAOnb+Auc2kvG4zDWR7jtKwoAQgKk8nsEgJ5zqcQoxjI7S5mFxIANwqIrZowdiMR5mMFmpDqoiOfPLPZ7rZoRGbvWiwNAiDGyfOezjvVqJsvnzS3m5bL8q4A7MWJ7wmCMNfTKp+9AkzBuyZ8ubaow+BxFmEzMKi3S505yPNtSXHTK5qeSRKuyGvqaYZmMqshUeTTs+nc5LkVFKeepKG6m/FHWa+0S2AAecO1EdqYhxLaV2893bLF5wC9Hm1sY64rR4fuD+ssk1A1EehXmwPOH5S9bqv5+OHP4AXtn+EzHYvbXP3Lz1x8LsmTqlqWTip5tHHB/LDH2By1aNPTa5a1zCpet1EnDlAtF3uwuBjAxlfXls691Eaqz6G+QeAt9YRcauP/W9mHlICMBhe3XgD8FykNuZzYo3ZE1EnI75AYeH3Y415mHD3yZHqw7ITKtfl35LTnZhzRgbNnMCnTqlpWTIQS/LuMmbDJ9esW4xTFq1lePpgx5p3Gqp/T1HR8Rh1dNyTLcR8FTPnHxV3aPlECcBguCnZBr44YquPMj2VnYWGoppVfwR4tG8hZt9i8ZzWWOIdfqKumPejuAPuNwujPy3iduPkypafxR365Jp11xrc3fewTU/G9MXiOa00VFVhfgbwDLAXYeIOylND4fHQQaEEIKpEkNmM06LiZXRMvurzO5EgnmeD0+ElRLrcaptJtDbEEuvwFGkFxUQiMRT2XXh71AYG34s76O1C9xsjxL1v3PHmlYbq3+PtE3BuBN6O252U158Qd1j5QAlAVOkws/uHi+e8DnZttEb2RWYtGT2o47uofhyRl/z1ldrcZ1BF+r0Nt24ZAvMygsi/B5YInog76jejJ/h7hOqD+zs/FDRd+hpNVZ/CrBwYgYe/5IvzB3Tnx6FACcBgsuBqok0I2oP2LZ8f1BgL0mV03ip210IIrxrUGEX6wNp9c9wxbOdGW9wxDAsNlY1Y8D4goCAxO+5wcp0SgMHUMPdJ4IeR2phfPGgLXUxNFuEW8baD/ZTGmscHJT4RkV1pqPgjHrwP4wIuXqR1RnqhdQAGXVAL4fkRGhxF2cIzaeQ3Ax7auDEXgO8fqY17tEccM1VWew5431dJ88SvaKpYOyix7Uxp3WkE3veNS0Kaaaq6MtaYRYaCpoq1TFv4Pra+MZpoc6+GFSUAUSUCI8NpAAA0VvyJ8tQduEV4ljv9ZRiEBACPtuyv8QCNVX2e3dw/9jng7L5XT78IxJsABByGM7XvMTNyQMIoHDEsl0ptLQiH5bhlm5Vz1wPr4w4jl+kWQBycumgN7ExKa981oDGV1Z4BHBdxHAsGNCbJjrate8QdgojkHiUAcWis+gUQZalPwwb6kUCPuuzvk+y38ScDG5P0xDza+v3pREKPRInIDpQAxMIc86sitvnCtkf0sm9GfQnYmZHauC8kmYy2xKlkhRtPR6kfQJk7uhwuIl0oAYhLYfF3gBf63sBHUuDTBiQWCysg0gfEqxSMjLimgWSLmbVEqe/4iWtqJ3w17rhFJLcoAYhLx7K5yyK1cZ/D1FXZ3T2vPLUPxoWR2hiNLJ2drW1UJaowzGCnSP+f5trxN66eP/7ouMMXkdygpwDi1B58i4Kwhr4uvGMcwrinPgL8NItRfAkYEaH+VtrTSwbvJEl3k2paHmxeMOFnWMT9GpzzLeD81anxjxms8Y71018zLONbOQ6bAsJWLHgphGdGBOHfSypaXon7HInIrikBiNM1Fa9QVvttYFbfG9mXyVYCMLd+NzaHfX9OHQC/gRXznh20cyQ92tq+9YuFhQWrgUOitjU4CjjqrXs+mT/WaoBjsG2SQWvaaE6Nfw64H+we8/afT6p5VAtFieQg3QKIW5Cog0izuk+jrG5iVt57c/h5ou4sF/rCQTs3slMnfuXPL2P+H5g/GXcsPTgAOAe8zi3xl9Wp8WvX1I7/8n2LjtCqbCI5RAlA3JbN/RtYtC1LzbPwSKAb7nOivS+3srzmwUE8O9KLyVUtjxQW2LujbDUbB4Px7lxV1DrimebaCf/1UOrYKHtNiMgAUQKQCywdbWEg57OUp/bp13vOrP8oZtEmhHkQcQEjGWgTLln3z+M2rTsV5yKcf8Ydzy7sjvvX04SPNtcd+4GBfrPi9mAI7IIoMnCUAOSChpp7gD9EaFGMc1G/3tPDqAv/rKNx7s2DfWpk1yxJOLlm3bVtI7a807GLifiYYAwOIgxvWb2gpCbuQESGMyUAucIs4lUA+xKljYUZvdfM2inR9iIA8HowfaPKYe+e88TrU6rXfmty1drxFnCKwf9i/JFoc0wGS2Bm89ekxl8WdyAiw5WeAsgVLx/0E8Y+/QTGEX2qb+yPvf4JYFXk93KriDjz+0VaN90Q9ymSvptUue5e4F7gq2sWHreHtW2dFCbsKJyjgSOAkcCYTPp2KDbYE3g7/fwS4fDN1amS+6dUt/w+7nMmMtwoAcgVN52Xpjx1NW6L+97IvkzUBKC8/gA87PsOdQBmi1iZ3BL3KZLMTJr74Hrgtm3/sqYlWVLUvlvisPZEWBJg7/fQP4nx9ojdBIbVE3UjKhHpN90CyCXhpmuBf/W5vnMy5fXRNnrx9CVAhFsHtpnQG+M+NZJ7SpItbRPnPfzYlKp1P5pUtfZL4ebiwx1SGXQ1cc2CkuPiHo/IcKMEIJc0JTcDDZHahGHfHwn84vwxYNOjBeXX0VTV96REhq3jk6s3T6leVwM+P3rr4Li44xcZbpQA5BrzxUDfL7cb5zNrwb59qluUmA7sESGakERwVdynRPJLuPuIrxFpoysIg3Bs3HGLDDdKAHJNQ/WLYN+P0KKI0Mp3WWvqqgROxAWE7KcsrXgi7lMi+eX4stVbwR6J0sY80HbFIoNMCUAuCtpTQNjn+m4zmZbsfUOfPZ86Fzg8UhxRFygSeUtb3AGISO+UAOSiZfMeA34docU+FI85r9cabnMjxWA8sG2BIhERGYL0GGCucqvD/MMRWnwZ+E6PR0pr3wO8O9L7h5bJbG6RvOJJgjWjS/4Xt+MjttyKUTW5qiXSrQ6RXKIrALmqqfI24I99b+CTKV9wSo+HzKIu+/sk+2/4cdynQGSgWZIw4YlvgrUDp/f9n52F291/qi15T9xjEMmUEoBc5n51tPrBjrv7TU8dBv6xiO+7kGSyPe7hi/SHF/Zt6eqJ1Q9vKt4Uno1b1NUuxwZutzYvKDk37rGKZEIJQC7bf9MqnKcitDiHWXUHdSlJWCWQiNDHegpGXhv30EW68sj7UHh7+6F9rVuSbGmbtHntZ4BFEd+mGLMbV6cmfKG3SoYXRwm9t4NBYK1RAjTzEVHqy/ChBCCXJZPtmEX5g1RA6LPefDXzirHAtEjv6TSxdPbGuIfeb6bHymLlYWYbVe2M2frIIVjw/khvkSScXL3uy+b8J9E2yygw/JreNjYKscMi9Le5t4Oh2+uRzoOzX5T6MnwoAch1RYUrgNf6XN+Zwdz63QBIF5YBoyK821bCdIS9CAaTR9zRzveKO+Lh6rbkoSMwOy5SI/NeP/Rwfzl6JH7BqlVTo1z9AmBSzbrLcaYDUW6DmcPlzanxV3tyx7+r5v7pCH31+vueCMMnIw3ImHL/5e/aM+p5kKFPCUCuWzzndaApQos9eSP9GaYmi4CLI72XcyMr5j0b95B3ItLKcsD74g54uNp91Ohv0LFbYJ+Z2/O7qPJoBqEcc+RTj0adAAvA5Jp11xL4ucAbEZvOWTNq/PdbkiVF2wuaU+MvwiI9hfPX3g4WFvIQ0bZ4LiwsLPhGJudBhjYlAPkgnV4EbO1zfbeLGTfmAoz9I72Ph/VxD7UXd0cbC2dRVve5uIMeTh5fdETx6tT4BQZVUdtu9fD+3mv47ZnE5HDlmtT4anci3xKaXNnys9D8g8CrEZte0DrKfnn3/KPGrEmVzCDq/h7G2t4Ol1S0vALcFzGmmWsWlNTfW3/SbtHPogxVSgDywYp5z4L/IEKLCeBRP8x/x/KaB+Me6k6NDH5ClJ0SAfCVlNUuofTKg+MOf6j6U3LKyD+ljjmxubbkqxtaR/zFoDqDbu44oaal1ys8Be3BzQ4bMug7cFiwpnZ885raks9HvRR+fFXL3QmC9wLPRXzf00cGhU861kTE9VYMfr7LSu5Rrgp2NDGbOyK94cnVqfGp5toJZzXPP2r/TBIjGTq0EFC+CL2OwD4ToUW0e34hub3s78KKNyiv+yruUb5NGTALK5hJWe2jOKsxf4mORKLvSy1nyj3i4jK71lJfMq6t3R4Y8Nj7IDT2NlrHQBBtytwO7Ju7qnHsZWtfbV4wvgmjMsM3Oc7dVhYWFoRrFox/0s2eBH8V2/X/gzQhOE8DB0R8z3EZxPnX9Rv3um1XlV7bvPf1bxv9cg3uJRH738egCvcqgkLW1I5vbU7xmjmxTvx1wydXrzsizhiGIyUA+WJ5zYOU196Kc/oA9P5nllf+JoMrt4OrobKRstoJwOyILQ04BuMY8vwLT+uWogSFW6Pt6TBAsnEmHVs+pXrtrX2pW1zgl7em7TzgoL7U34nAjcPBD98WQI7xr56WvH2Xkw9PS97evrp2wucN7gGiPGLYXTGwjxv7xD3wmN9/WNItgHySzmSf9T4wLu+YxJwH9tt4CfCjuMOQbPBf++5FfU7mSipaXjH3TwGRnoPPG86KydUtN/a1+pSqtasx/wzRJgSKvEkJQD5ZXn0r8Ics9/oYLx98fdxD67Nksp3Gyk/iXkOUiZGSU8y9Kdx9xNkdWwf33aSalnsIgg9nOB8gZzm2/IlDj971tt7dTK5q+T93/wiwPu4xSP5RApBvzGaTvQ8+x3wWN52XZ98gzGmqThFyCnB73NFIJM+Z2Scm1bSURf3w325y5cO/84SdAjTHPZgs+JeZfWZK9drS8867KaPfwyk1Lb8pLORdYN9Gl9IlAiUA+aahcs22b79ZYFfSUP37uIeUseVVD9BYdRph8D6wW9Cl0Fz2L3eflyA4alLV2p/0t7PjK9aufW3TXieCVRJ9jYhcEIL9V1vxlndMqlr7/f52NuGSdf+cXL12mgfByQarGKq3SSSrlADko6bqq8C/Qv9msl9NY8V/xj2UrFhecQeNlWdivj9QBtzMELtEnKfSYL/H/MIxxVsOnFLTsmBi9cObstX5acnb2ydXr60fU7zlUMNLgXvJn2/AAYTvGvNK8ZZsdjql8uH7JlWvO7844fs7drHDLUPtdolkj54CyFeN1VdQnvoDbvOBEyK0fAz4Co1VP8r5Wf9RNVS/SMeqiU3gRmnqcILEcbiX4L4/ZnsAewBjibZBUqb2JfqjY/nsGdz/glmLmd2Wbi+67fhLV/d9GesMHTnniVZgObD8ofnHHtge+McNPwGzybi/i4H9WW8BXgded3i7wZi+N7ULt4xir5YlJeeWzG7J6mN42xYL+hbwrVWrpiaOeOaR8aTtZIejzPxQJzjY8EPI7FFFGSKUAES1MVzLaOv7891WsLnPdaNqqL4dOJHSBZMh8WEIJ2J2BB1/hN4GbMD9Dcz+irGOdPAb1h9494De83c+TyLC/gPp9BMDE4g5TfyVjmVVfzhg4+1Nae2lGFdks8vX2t726u5FL2d9fYFMeGjuhb4+8UbBhi0jRmw8ueIPUZfNzbqJ8x5+lo4PPqBjoSLbrfWQwHxciI01fJwHQaTd8SwMt1gQvB56+DoWvOahrw/aC18vbmt7rSTZ0ra93urU+GPBfg3e5xU4DT7Yutlua7580n9M/sqalwbinGybW/DQtn9d/KlxSmHRK22jW0cwNmj30ZhldxMnyWn5/VC0SC6LngD8ksaqj8QdtmSuufboQ9wTNxscFaWdOX8LC/zMKRUtA5QQi+xIcwBERLJkctWjT41I+Ml0zEfoMzcOt7Td9WDdMZPiHoMMH0oARAZKMAjLDUvOKaloeSVB8EHgVxGb7huGwZ1rasefEfcYZHhQAiAyUJyiiC1iv4cu2TGx+uFNr23a62zgmohNR7vz89Wp8efFPQYZ+pQAiAyc90Sq3bFRkQwRpyVvb59UtW6Gw9cjNi02uL65dnzklQFFolACIDIQZtZ9DIh2KTcM1kaqLznPDJ9SvS4JfJlo63YkcJY1p0qujHsMMnTpKQCRbLp4UTFtrZeAJYFIj5sR2lEsr/xL3EOQgbEmNeFCx6+DaLeGDK5bv2mv0r7sEigShRIAyQ8XLyqmfdPIuMPokRcdijMBeA/4J+lYaCiq39NY9YG4hyIDq7l2wntxToraLgjStxxX+ciauOOXoUULAUl+aGu7CAqXxB1Gz/q9+mxIaF+LexQy8CZXrb0TuDPuOERAcwBEckEdyysjPTcuItJfSgBE4vV99tt4adxBiMjwowRAJB4OdgX7bfwcyaQWDBKRQac5ACKDzf1RPDGT5RV3xB2KiAxfSgBEBs99OA28esj3BnRHRhGRPlACIDJwQmAtzs0Y36ax6pG4AxIR2U4JgEj/pIHXgPUYL+D+BNjjBPYwtN3FsstejTtAEREREREREREREREREREREREREREREREREREREREREREREREREREREREREREREREREREREREREREREREREREREREREREREREREREREREREREREREREREREREREREREREREREREREREREREREREREREREREREREREREREREREREREREREREREREREREREREREREREREREREREREREREREREREREREREREREREREREREREREREREREREREREREZMP8PHqBOKLFTVXgAAAAASUVORK5CYII=;" vertex="1" parent="9cq7SxsJMmVzWgC3gyxr-37">
          <mxGeometry x="-29" y="-13" width="354" height="177" as="geometry" />
        </mxCell>
        <mxCell id="9cq7SxsJMmVzWgC3gyxr-45" value="" style="swimlane;startSize=0;" vertex="1" parent="9cq7SxsJMmVzWgC3gyxr-22">
          <mxGeometry x="158" y="447" width="236" height="231" as="geometry" />
        </mxCell>
        <mxCell id="9cq7SxsJMmVzWgC3gyxr-46" value="" style="shape=image;imageAspect=0;aspect=fixed;verticalLabelPosition=bottom;verticalAlign=top;image=data:image/png,iVBORw0KGgoAAAANSUhEUgAAAMwAAADACAMAAAB/Pny7AAAAY1BMVEX///9ssz5lsDJqsjry+O7X6c98uleXx3zp9ONnsTaKwmn5/Pdjry77/fpgrij+//3e7dbQ5cV4uVC72quz1qCo0JLJ4byDvl+v1Jt0t0ri79ygzIePxHDE37akzo1brB5VqQ3dzP9GAAAI50lEQVR4nO2daZOrKhCGw+KCoibRGJcY5///ypvMomjsVhPQU3V5qs6ncUZegaa7aTiHg8VisVgsFovFYrFYLBaLxWKxWCwWi8Vi0Yh/dN7k6O/d9iF+5gXuu1wDL/139PC7S6hg7yIEJW4R7q3ih/z8EEI+g1H3tLeOB8k9Fh8q+UbIYm8pB+7Fn/bKLyyudx5qvKZ6pDyhl13VRKnQ1C9PGGn2FHM8a5kvf9BgRxMdXmKdWgiJs/0GmqNzkD1hpNpLS3iTerUQIutoJzG55kH2JHb20ZIQrbP/B+ruI6Y20DGEtNkeWiojWgiTfAcxN41rv4qst9dyMqTloea4tRZ+1bzE9Ijb1itnuqp9q+KdzV206rrcLLOYlo9/y9WI26YuWlQs10JJU/n+KVhu/Bjb1DyfysXjhpZh8q1/hVMq3A39AF4vdsqUZSNYPtLkhmFavnyQxX1k768YaGSz9Ia/wluOFZ+eLLdpsbeRHxClaz6xYpiuKyya3Mg8V1iszOiDvgcYU8Qok+bxmKBYR9HrJuY5uSODTDCvyLyyazUgRrA6yy5nrKdkkWwgBouV5Tn3w5A7wV/fTYsRZ4dHET96yHgdDFBjIN+z/cuu+H/r0KQYRn9dSZ61sBp6M68lh9/f3joT1EhETNw5+UmD5EO/jK+cEWxfWyW9yn8fmxTTKj5+A5sBYTyCvoCzP74rq3ZUYmLUNeQkQTVxalbLEXyzVLUcOMPEDMZPDscHpVEbkHjQEiO8wYvROSM99VEkX82MRtA55C2L6yAVyV3MmhEx8Lz4HfpC7GzQReNQEoOVufpcdZtZZ8pcTVz6N7i/zXnPYKwsCqVxUX6d9QBINjACZ6DDDUbQFRSRiKvStLBRfDfQN2N3VU0BzRpqKoIOM2g0UGVoJ7matYXEjNRwF/jTTKRmXDRwZ4leladOgww0KOYZtinzoYF8pJFl0QUHc8ut0uBqmE1HxJC2UT46GFbERiLoE6RFXTbC89BDwMQwqSyeJ8jlY8JAgpO70EhQI+P7SDEmhkhXmTbgn5c3/RF08wW+rB8t1fghVAxplTqGBoxtvrSvnD7oQbX9u5KXKB8Xo7qcHEzFibPurrmDY7rsX/U6rWbEKNsXCZwkbDUXohxBR121NreXh2bEENn/2AGjPib0rpzwzpIyop2JdsyJ6bPKHPJpxm72p6SgFsY6W5bcX1szJ4a5Xb+GSM5XaLQBoLfxdJ66KcOD9WJIn4dNGji7wK76nJoLnPWTfYHI1NbArBjWT+4jZPyfj2nb5MDKfWTvk2QTY35WjLLnVyG5aOFqsgFhjaRj+9EcTT02L6ZvpY/txrGLnoGWl/BLWNl5TnwqXpwfZmX3NbiH5X317D+FFyQlLNzOmPnBO2IISfsXYTslrNBRIgTGl99i+nDDmTJ58z1DuqkdZpgYPTHnCdsjUmr3JgP5+Z5hC8Wws45xBi+Yw+81LYbMiRGdbcbFEJYfPibMPhIjlGBnculVxWBvYlRDNgCd/49hpsyZqeGoBgiTOXK2tGdE+rkFwMUoBuA4uUyIsvtL6bS70s+ZAhVDNRSjhgXa+Wd8nXkGI7+jw5/Uwsouzcex/cWHGA09E+EjmXQ2hgNJ9bjweRhyIE2tGCkw+fuD0JHcbNAKBsU5h/Lf0r1nxU1M/1RJhvqwb0501Tk4cND0bGnf+XAmWsYxtEEmvO73K/yrXXWknLiH7nD3UfMRVQ2g+PZw3PyE1lrSGinWRtEXH4TgzgSipZ9zUYYVfujaD/DRciQlBTgV0Mwggm6UhegIoLpSgSnmnbV5tzD7Kyp9fpH9HizHDhaMdrM+IJly7rvmKBvm99UVtXH/lhyJmgnVl59xkE+uJrVWVJT90PYdk2B1X6zUuLGBDedWmZnjvPkMgvS+I5z/fUDv+rT0tTBTLbqqhRmrDFqsTIQCMcyas81YvZziGB9ytIhshKz7jomwjol1zf4fQiTbNNgFROP4kRb1hBn2teT1pT2fAe5sPT+c0jUcqyEbfoOz03cMvKFBxuUpGohucCOFqzjn1cJqbDEIg7E4o621bzhXWJ2bmjw9XpeMNEHU7dkj0jGDnIgmogL+4sNloArm1Qii9ksI1heRZ6GWgTN1WLgxPCXy8LNxm8boMG+E+UtmDqJGYOEBecnSFwRztIQYNvCEmEqmI8M0gY+EtWLkoR9voBxB3GGFH5oylXrCmFfAajPymtiOmhuhrx+cUXbNhuMGrvwg30XDZrQcQuy8vAxGviBvapdKtX8ElaWXjh4LkZ2sx6+YO64xmRvv1NzGQTp3mktQxm38pG2FW2cnf7RmRBd0dpkpA/omueDl+69DgvtHp8mKosjSk1PxFyMb1ajhM3rECd3cejgok9mgJAofTC4WHD+8wgKjB09S1MVnbF3WocIPoZgyy39E+ClAJtdc6tHMRD/C9GmAI5rcejgfixOPftDOxD6tibV/wJyLL2RdzTtTiZ+Wcx5cfDGt5cDnPHwmy6yaGWx+Hsi5AJvRDU4EIt7zXzNit3BgOxQem2DBgdp4i1NnfME5ONaSOnVel5XHb1f5xW0X5NdosMlRzdOSpAWj1PWKxvHD6HfNTyLfybM6YLMD7Pv3yTaHaJeG+YyK0g28+vJY/rOsuHuBWzKx8HYXMxXAE2AJzpEeIbrWP3UszkOJ81Y3HIRYwg6Ste7x1vChJoUZN+RzjJ1nmAJ30T6GEbNO2RAsgtaA2OqY9g9YBP0xRk9nTRDWJsVcNr59yjHXNey8+ZVt4BG+j6Hb39YUfnx3JoAod7jibMV9DauId7kdFCmq/YCdLjjDy0PeJd7pVkCsDvltLeZj5Wl8/ffo6T/FtJREvw3YJFaextftPZs4+beUZNW2/zwb3mo0wYobqJYg7/t1zOG5yaHziuPxFs/W5PosGi13vxn8RDT1jdwouYRSBRruBmZs44sAIcLMXZoNg6QI5hq6xGA9/uVWCknfRIrzLfsnuuUXP89q703q7LSrRZ4i5G/yj/xfDRaLxWKxWCwWi8VisVgsFovFYrFYLJb/N/8B5xuB2UoMbzIAAAAASUVORK5CYII=;imageBackground=default;" vertex="1" parent="9cq7SxsJMmVzWgC3gyxr-45">
          <mxGeometry x="47.28999999999999" y="4" width="126.44" height="119" as="geometry" />
        </mxCell>
        <mxCell id="9cq7SxsJMmVzWgC3gyxr-47" value="&lt;font style=&quot;font-size: 25px;&quot;&gt;HTTP SERVER&lt;/font&gt;" style="text;html=1;align=center;verticalAlign=middle;resizable=0;points=[];autosize=1;strokeColor=none;fillColor=none;" vertex="1" parent="9cq7SxsJMmVzWgC3gyxr-45">
          <mxGeometry x="14.509999999999991" y="131" width="192" height="42" as="geometry" />
        </mxCell>
        <mxCell id="9cq7SxsJMmVzWgC3gyxr-48" value="" style="endArrow=none;html=1;rounded=0;exitX=0.5;exitY=1;exitDx=0;exitDy=0;entryX=0.5;entryY=0;entryDx=0;entryDy=0;" edge="1" parent="9cq7SxsJMmVzWgC3gyxr-22" source="9cq7SxsJMmVzWgC3gyxr-34" target="9cq7SxsJMmVzWgC3gyxr-46">
          <mxGeometry width="50" height="50" relative="1" as="geometry">
            <mxPoint x="305" y="310" as="sourcePoint" />
            <mxPoint x="355" y="260" as="targetPoint" />
          </mxGeometry>
        </mxCell>
        <mxCell id="9cq7SxsJMmVzWgC3gyxr-44" value="" style="shape=image;imageAspect=0;aspect=fixed;verticalLabelPosition=bottom;verticalAlign=top;image=data:image/png,iVBORw0KGgoAAAANSUhEUgAAAbgAAAE1CAYAAACV5PW1AAAAAXNSR0IArs4c6QAAIABJREFUeF7tnU1CJMXWhk9kMbeRdmTT1l2B3BXIXYG4AssGx+IKxBVcHNu0uIKLKxBWIKzAsmlHUgJzKuP7shpaoCkqI+Mn4+epiT8dceLEc07V2ycyIlIJHwhAYEbg+dZkR2v5LjUcp3srKjWf8RcCIQjwxQhBmTGSIIDAJREmnIRAawIIXGtUNMydAAKXe4SZX2kEELjSIs585xJA4EgOCORFAIHLK57MxoIAAmcBj64QiJAAAhdhUHCpHwIIXD/cGRUCvgggcL7IYjc5AghcciHDYQg8SgCBI0EgcE0AgSMVIJAXAQQur3gyGwsCCJwFPLpCIEICCFyEQcGlfgggcP1wZ1QI+CKAwPkii93kCCBwyYUMhyHAMzhyAAJtCCBwbSjRBgLpEKCCSydWeOqZAALnGTDmIRCYAAIXGDjDxUsAgYs3NngGgS4EELgu1OiTJQEELsuwMqmCCSBwBQefqd8lgMCRERDIiwACl1c8mY0FAQTOAh5dIRAhAQQuwqDgUj8EELh+uDMqBHwRQOB8kcVucgQQuORChsMQeJQAAkeCQOCaAAJHKkAgLwIIXF7xZDYWBBA4C3h0hUCEBBC4CIOCS/0QQOD64c6oEPBFAIHzRRa7yRFA4JILGQ5DgGdw5AAE2hBA4NpQog0E0iFABZdOrPDUMwEEzjNgzEMgMAEELjBwhouXAAIXb2zwDAJdCCBwXajRJ0sCCFyWYWVSBRNA4AoOPlO/SwCBIyMgkBcBBC6veDIbCwIInAU8ukIgQgIIXIRBwaV+CCBw/XBnVAj4IoDA+SKL3eQIIHDJhQyHIfAoAQSOBIHANQEEjlSAQF4EELi84slsLAggcBbw6AqBCAkgcBEGBZf6IYDA9cOdUSHgiwAC54ssdpMjgMAlFzIchgDP4MgBCLQhgMC1oUQbCKRDgAounVjhqWcCCJxnwJiHQGACCFxg4AwXLwEELt7Y4BkEuhBA4LpQo0+WBBC4LMPKpAomgMAVHHymfpcAAkdGQCAvAghcXvFkNhYEEDgLeHSFQIQEELgIg4JL/RBYfXE2kkpG/YzefdTTl0/Xu/emJwTyJYDA5RtbZgYBCECgaAIIXNHhZ/IQgAAE8iWAwOUbW2YGAQhAoGgCCFzR4WfyEIAABPIlgMDlG1tmBgEIQKBoAghc0eFn8hCAAATyJYDA5RtbZgYBCECgaAIIXNHhZ/IQgAAE8iWAwHmOba63Y6xuTrRndM7NKyXfv365sjPPcK6xcg4SgxBIhAAC5zlQuf5oInCeE8fA/OneCt9jA140LYcAXwzPsUbgPAM2ME8FZwCLphDIgAAC5zmICJxnwAbmETgDWDSFQAYEEDjPQUTgPAM2MI/AGcCiKQQyIIDAeQ4iAucZsIF5BM4AFk0hkAEBBM5zEBE4z4ANzCNwBrBoCoEMCCBwnoOIwHkGbGAegTOARVMIZEAAgfMcRATOM2AD8wicASyaQiADAgic5yAicJ4BG5hH4Axg0RQCGRBA4DwHEYHzDNjAPAJnAIumVgSGo/MnjYHx/vKFlSE6WxFA4KzwLe6MwC1mFKoFAheKNOOsbv59oEWviapHb15+dAiRfgggcJ65I3CeARuYR+AMYNG0M4HVzbMNEfW/GwNa5IelabVDNdcZaeeOCFxndO06InDtOIVohcCFoFz2GM3S5HRQj0Xkg3skTuqqGv354/Jx2YTCzh6B88wbgfMM2MA8AmcAi6adCDRLkyL683mdF+Vgp0HpNJcAAuc5ORA4z4ANzC/6cck1VgaIaGpB4P7S5COmqOYsOJt0ReBMaHVom+uPJq/L6ZAMnrrwuhxPYA3MPrI0Ob+6WPB+QoPhaTqHAALnOTUQOM+ADcxTwRnAoqkRgUVLk49Vc4NptTHeX26e2/FxTACBcwz0vjkEzjNgA/MInAEsmrYmYLA0Oc/mZV1V62xAaY28dUMErjWqbg0RuG7cfPRC4HxQLdtml6XJucS0/ur01dP9som6nT0C55bne9YQOM+ADcwjcAawaNqKgMXS5IP2mzNzb/ZWtlsNTqOFBBC4hYjsGiBwdvxc9kbgXNLE1rOtv9aVrn71QOLn072VkQe7xZlE4DyHHIHzDNjAPAJnAIumCwk825yMlcgnCxt2aaD00eBq0Gw+4S7LLvyu+yBwFvDadEXg2lAK0waBC8O5hFECfa9PBtNqHZHrnlEIXHd2rXoG+iK08sWk0aKzVZyDM6Hpt+2iWPkdvTzrTjeWLMaHyC1mNLcFAmcBr01XBK4NpTBtqODCcM59lGebk10l8k3AeSJyHWEjcB3Bte2GwLUl5b8dAuefce4jDEfnw+mg/r2HeSJyHaAjcB2gmXRB4Exo+W2LwPnlW4L11c1Jc07ty57misgZgkfgDIGZNkfgTIn5a4/A+WNbguXAz97mIFW/nO59uFECbxdzROBcUHzEBgLnGbCBeQTOABZN3yMQ0XeZc3It8xOBawmqa7OIvhRGU1i0M49dlEY4vTZeFCuvgxdk3Ou5N0OOSsu3r1+t7Bp2K645Auc55AicZ8AG5qngDGDR9A4BBxcqeyCqvzjde3rgwXA2JhE4z6FE4DwDNjCPwBnAouk9gXv8Td094eItBAvAI3CeMxOB8wzYwDwCZwCLpu8I9Hg0oE0U2Fn5CCUErk0KWbRB4CzgOe6KwDkGWoi55y8m21rJf2OdLm8gmB8ZBM5z1iJwngEbmEfgDGDR9B2B1c3JsYh8GjcSnsc9FB8EznPWInCeARuYR+AMYNF0RiDy5cnbUbocTKshFzPfTVwEzvMXGYHzDNjAPAJnAIumMwKxL0/e+znnEPi9vEXgPH+RETjPgA3MI3AGsGg6I+D6jd3+sbJUeZsxAuc54xA4z4ANzCNwBrBoei1wE50SCi3yx9K0WmOp8m3UEDjP2YvAeQZsYB6BM4BFU3m29de60tWvqaFYlOepzcfGXwTOhl6LvghcC0iBmiz64ucaq0B4sxsm1XwQkWbDSVPFjbMLiuGEEDhDYDSHAATKILC6dXYoWn2W6Gy5kJklykRTF7chAAHvBFK8UPw2lMG0+lfpVRwVnPevCQNAAAKpEfj46/O1qq5/S83ve/4WX8UhcIlnMO5DAALuCay+OBuJUj+5txzWYulVHAIXNt8YDQIQSIDAs83JrhL5JgFXH3Vx0caq1Oe3yH8EbhEh/hwCECiOQOIbTG7H6/J0b+VJcQG8njACV2rkmTcEIDCXwOrm5EJEPsgCkdZfnb56up/FXAwngcAZAqM5BCCQP4HUd1DejZAq9o7KqAQuxaRatMad6mHR072VR3ODWMXzI78wVime51L66PTl0/U+KKd6g8ljrAbTarnE67sQOMtvEAJnCTBg92JjhcAZZVmOAieFLlMicEap/37jYn80N9O6hLaJXLGxQuCMvuWprro8PskylykROKPUR+BuCLBEaZk4DruzROkQZvMOuK3JjtbynVur/VsrcZkSgbPMu2KrAio4y8xx1x2Bc8eysZTLGbj3qZT3rjgEzvK7gcBZAgzYvdhYsURplGUZnYG7M28t8sObvZVtIxiJN0bgLANY7I8mFZxl5rjrTgXnjmVjKVeBE5GT072VNbe04raGwFnGB4GzBBiwe7GxooIzyrKMBU4W/WXICFQCjRE4yyAV+6NJBWeZOe66L/rRSvIHu8dzcEnyaplOWtX/efPyo8OWzZNvhsBZhhCBswQYsHuxsaKCM8qynAVOafn29auVXSMgCTdG4CyDV+yPJhWcZea4604F545l5s/g3jsLOhydP7laulpTWj1RSs2ez2ktQ1F6+I6qVs1lzZ8+QvlElG7u7nz70dWFUvp49q+1HutKj5eulsZ9vHwVgbP8biBwlgADdi82VlRwRlmWcwWnRf5QIoczAdPqMyMwbhqfiKhxI4Ba6+PBdHDsU/gQOMugFfujSQVnmTnuulPBuWOZewXnlpQza5ci6lBpfTgdVId//rg8q/5cfBA4S4oInCXAgN2LjRUVnFGW5VzBGYHoqfG7KlP0wene0wMbNxA4G3ol329IBWeZOe66U8G5Y0kF55alA2uXWmR/aVrtdlnKROAsI1BsVYDAWWaOu+4InDuWCJxblk6tKX2kRe+YHHNA4CwjgMBZAgzYvdhYsURplGUsURrhCt9Y6aNaDbbbPKtD4CzDU+yPJhWcZea4604F545lYynfy5bdcurb2qLf3sY/BM4ySosgp/rqjYU/mgicZea4674wVlRwRrBT/c4aTTKfxid1VY3mVXMInGWgEThLgAG7FxsrBM4oy1ZfnI1EqZ+MOtG4VwLzbmhB4CzDUuyPJhWcZea4604F547lbIly6691patf3VrFmncCSh8Nrgaj27stEThL6gicJcCA3YuNFRWccZal+MZ640nm2eFSadm5uW8TgbMMcrE/mlRwlpnjrjsVnDuWN5aebU7GSuQT95axGITAdTWHwFnSRuAsAQbsXmysqOCMs2x18+8DEf25cUc6xETgEoGzDEexP5pUcJaZ4647FZw7ljeW2Enpnmlwi0ofIXCW1BE4S4ABuxcbKyo44yxjo4kxsug6NC93ReAsw1LsjyYVnGXmuOtOBeeO5W1LbDTxwzWI1es3wiNwlrQROEuAAbsXGysquE5Ztro5aV7b8tiLPjvZpZN/Ak311txZicBZsi72R5MKzjJz3HWngnPH8rYlnsP54erd6nX11oyDwFnSRuAsAQbsXmysqOA6ZdnHX5+vVXX9W6fOdOqRgP7i5j1yCJxlGIr90aSCs8wcd92p4NyxvG+J83D+2Pqw3Lws9c3eyvDGNgJnSRmBswQYsHuxsaKC65xlq5uTfRH5srMBOoYloPVXp6+eNjGbfRA4S/zF/mhSwVlmjrvuVHDuWN63xDKlP7auLd+v3hA4B4QROAcQA5koNlZUcFYZxjKlFb5wne9VbwicA/TF/mhSwTnIHjcmqODccJxnhd2Ufvm6sP5Q9YbAOSCLwDmAGMhEsbGigrPKsOHofDgd1L9bGaGzXwIPVG8InAPkxf5oUsE5yB43Jqjg3HB8zAqbTfwzthjh5HRvZe2h/mwysaA6+xuCku9fv1zZyW15Y+GPJgJnmTnuui+MFRWcNWyqOGuE3gzc3FqCwHlAjMB5gOrJZLGxQuCcZNRqihydzDxmI+qX070PN+Z5SAVnGbtifzSp4Cwzx113Kjh3LB+zxJGBMJwNRrkcTKu18f7yGIEzoGbSFIEzodVv22JjlWLlces+wX6z5u7oPIuLJxqLvs+zR0jxuCuS4uspFkFOdYvxwqqACi6ar87CWCFwzmI1HJ0/mQ7qpmL4wJlRDHUhMHdjyW1jUQlcl1nSBwIQgEBIAs82J7tK5JuQYzLWHQKXdVWt//njcvM6o0c/CNwiQvw5BCAAARGZveVb1I5o9RlA+iOgtHz7+tXKbhsPELg2lGgDAQgUS2D1xdlIKhkhbDGkwOO7Ju97iMDFEDN8gAAEoiLQnHu7GtTbIrKhRD6JyrlynTkZTKv18f7yRVsECFxbUrSDAASyJtCIWl3VG1rJSEQ+zXqy6U2u9XO321ND4NILNB5DAAIOCLzdETld16LWqdQcAPVooq6qf7fZVMISpccgYBoCEIiXwGyTSK2GWqk1JdKIGlVavOH6x7M5Fym3cZ0Krg0l2kAAAlETaG4ZUfrqSeNkI2KqUsNayxOl9JrWashztKjDN985C3Gb5cKN5VQPJCcaNtyGAAQgAIHHCFiK2x2BW938+0BEfw5xCEAAAhCAQK8EHIjbHYHjtey9hpPBIQABCEBA5FKreuPNy48OXcB4t0SZ4j2QLgBgAwIQgAAE+iegRf7QVbXRZbfkPO9nAjfbXaSrX/ufIh5AAAIQgEB5BNQvg6kamRzibsNoJnCrm2cbIup/bTrQBgIQgAAEIOCKgMndkqZjzgSOHZSm2GgPAQhAAAKWBE7qqhq5XJK87w8CZxkhukMAAhCAgBGBS6Vk9/XLlR2jXh0av12iTPGFiB0mSxcIQAACEOiTwOxZ2/Z4f7l5aaz3DwLnHTEDQAACECicgNJHWvSOq+3/bWkicG1J0Q4CEIAABMwI9CRsN05e76KcNO/X+cDMc1pDAAIQgAAE3iNwKSIHg2m1E2opcl4MbgROEyQIQAACEICABYET0Xp3UA8OXJ9n6+oTAteVHP0gAAEIlE5A6SNVq4OqrhpRC7JxxAQ5AmdCi7YQgAAEyiZwokUOlejDwXRwGEulxhJl2UnJ7CEAAQiYEVD6SLQaKyXjWurD0DsgzZx9uDUVnAuK2IAABCCQBoFLUfr4nau6ulDX/621PtZKXyxdLR3HXpm1Ra2Go/PhdFD/3rYD7SAAAQhAIEICjt6hFuHMOrukeJNAZ3Z0hAAEIBALgcvBtBrmUnm5gorAuSKJHQhAAAI9EdAiP7zZW9nuafhoh0Xgog0NjkEAAhBoR2Awrf4V4zb9dt77a4XA+WOLZQhAAAIBCKhfTvc+3AgwUHJDsIsyuZDhMAQgAIF/CGhV/yfFLfwhYojAhaDMGBCAAAQ8ENAif7zZWxl6MJ2FSQQuizAyCQhAoEgCHA14NOwIXJHfCiYNAQhkQODydG/lSQbz8DYFBM4bWgxDAAIQ8EdAKfn+9cuVHX8jpG8ZgUs/hswAAhAojwAHu1vEnBeetoBEEwhAAAIxEeBgd7tovBW4rbND0eqzdl1oBQEIQAACfRLgYHc7+ghcO060ggAEIBALgZ9P91ZGsTgTsx8IXMzRwTcIQAAC9whQvbVPiZnAPduc7CqRb9p3oyUEIAABCPRAgOrNAPpM4J5vTXa0lu8M+tEUAhCAAAQCE6B6MwOOwJnxojUEIACBvghQvRmSf7tEufXXutLVr4Z9aQ4BCEAAAoEIUL2Zg0bgzJnRAwIQgEBoAlRvHYjPBG44On8yHdTnHfrTBQIQgAAEPBOgeusGeCZwzWd1c6K7maAXBCAAAQh4JED11hHuO4F7tjkZK5FPOtqhGwQgAAEIeCBA9dYd6j8VHNd1dadITwhAAAIeCHDnpB3U2xUch73tWNIbAhCAgEsCvDHAkuY7geOwtyVJukMAAhBwSID3vdnD/KeC4yycPU0sQAACEHBAQIv8sTSt1sb7yxcOzBVr4p3Affz1+VpV178VS4KJQwACEIiFgNZfnb56uh+LO6n68U7gmglwVCDVMOI3BCCQEYGT072VtYzm09tU7gvcsYh82ps3DAwBCECgcAJa1f958/Kjw8IxOJn+PYH7+0BEf+7EMkYgAAEIQMCQgPrldO/DDcNONJ9D4I7AsZOSPIEABCDQG4HmWECzsWTcmweZDXxH4HirQGbRZToQgEAyBDgW4D5UdwSOS5fdA8YiBCAAgUUEOBawiFC3P78jcI0J7qTsBpJeEIAABLoT0F+c7j096N6fng8ReE/gVjfZaEKqQAACEAhHgI0lvli/J3BsNPGFGrsQgAAE3iPAxhKPSfH+EiVXdnnEjWkIQAAC/xBgY4nfbHhP4JrhuNHEL3SsQwACEBARbizxnAbzBI4bTTyDxzwEIFA2gbqq/v3nj8vNby0fTwQeFLhnmxPeDecJOGYhAAEI8CLTMDkwp4I72xBR/wvjAqNAAAIQKIcAZ97CxfpBgePAd7gAMBIEIFAWAS5TDhfvBwWuGX51c8JzuHBxYCQIQKAAAixNhg3yXIHjPFzYQDAaBCCQNwGWJsPHd67AcfFy+GAwIgQgkC8BlibDx3auwF0vU16IyAfh3WJECEAAAvkQ4EB3P7FcIHDcS9lPWBgVAhDIiAAHunsK5uMC9+JsJEr91JNvDAsBCEAgdQKXdVWtc6C7nzA+KnAcF+gnKIwKAQjkQUBp+fb1q5XdPGaT3iweFbjZc7its0PR6rP0pobHEIAABPokwGtw+qTfjL1Q4J6/mGxrJf/t21HGhwAEIJAKAY4ExBGphQI3HJ0Pp4P69zjcxQsIQAAC8RPgSEAcMVoocLNlSm41iSNaeAEBCERPgCMB8YSolcCxTBlPwPAEAhCImIDSR6cvn65H7GFRrrUSOHZTFpUTTBYCEOhAgOduHaB57tJK4N4uU3Lo23MsMA8BCCRMgBeYxhe89gLHoe/4oodHEIBAHAS0/ur01dP9OJzBixsCrQXubRU34W5KcgcCEIDAXQI/n+6tjIASHwFTgWv+hvJlfNPAIwhAAAK9EOCeyV6wtxvUSOA+/vp8rarr39qZphUEIACBrAlcDqbVcLy/3Kxs8YmQgJHAXS9T8qbvCAOJSxCAQFACXKIcFHe3wcwFjs0m3UjTCwIQyIcAm0qSiKWxwF1XcWw2SSK8OAkBCLgmwE0lron6s9dJ4J5vTXa0lu/8uYVlCEAAAlESYMdklGF52KlOAscFzAlFGFchAAE3BLiGyw3HgFY6Cdz1MiVHBgIGiqEgAIFeCZwMptU6OyZ7jYHx4J0FjirOmDUdIACBNAlwHCDNuC1+4elj8+Jt34lGHbchAIG2BDgO0JZUhO06V3DNXJ5t/bWudPVrhPPCJQhAAAK2BBA3W4I997cSuNmzuK2zQ9Hqs57nwfAQgAAEHBPQX5zuPT1wbBRzAQlYCxxVXMBoMRQEIBCGAAe5w3D2PIq1wFHFeY4Q5iEAgbAEELewvD2O5kTgqOI8RgjTEIBAOAKIWzjWAUZyInCzKo43fgcIF0NAAALeCCBu3tD2ZdiZwHEurq8QMi4EIGBNAHGzRhijAWcC97aKm3C7SYxRxicIQGA+AcQt2+xwKnDD0fmT6aAei8gH2RJjYhCAQD4EELd8YvnATJwKXGOfNw1knS9MDgL5EEDc8onlnJk4F7hmnGebk7ES+SR7ekwQAhBIkwDilmbcDL32I3Bc4WUYBppDAALBCCBuwVD3PZAXgWsmxbGBvkPL+BCAwHsEELeiksKbwLHhpKg8YrIQiJ0AFyfHHiEP/nkTuMbX5y8m21rJfz34jUkIQAACbQkgbm1JZdbOq8DNlip520BmKcN0IJAUgZO6qkZ//rh8nJTXOOuEgHeBu77hpEkuzsY5CRlGIACBlgROBtNqfby/fNGyPc0yI+Bd4FiqzCxjmA4E0iDw82BabSNuaQTLl5dBBG62VMllzL5iiF0IQOAWAS3yw5u9lW2gQCCYwLGrkmSDAAS8E+AYgHfEKQ0QTOAaKLw3LqXUwFcIJEWAnZJJhSuMs0EFbvY8bmuyo7V8F2Z6jAIBCBRAoNlMsjHeX24ueucDgXcEggtcMzJHB8hACEDAEQE2kzgCmaOZXgSO53E5phJzgkBYAkrLt69freyGHZXRUiLQi8A1gD7++nytquvfUoKFrxCAQBQELrWqN968/OgwCm9wIloCvQncbKnyxdlIlPopWjo4BgEIxEVA6aPB1aB53sbh7bgiE6U3vQrcTOQ2J/si8mWUdHAKAhCIhoBS8v3rlys70TiEI9ET6F3gZiLHfZXRJwoOQqBHAixJ9gg/5aGjELjrTSfNevqnKcPEdwhAwDEBliQdAy3LXBQC1yDnUuayEo/ZQmARAXZJLiLEny8iEI3ANY5e76xsKjnePLAocvw5BPIlwCtu8o1t0JlFJXCIXNDYMxgEoiPQXJS8NK122CUZXWiSdCg6gWsocnwgyVzCaQh0JqBF/hBVjzjb1hkhHR8gEKXAIXLkKgTKIUDVVk6sQ880WoFD5EKnAuNBICwBqrawvEscLWqBQ+RKTEnmXAKB5tB2dVXt8qythGj3N8foBQ6R6y85GBkCzgkofVSrwfafPy4fO7eNQQjcI5CEwDU+X78s9YAjBOQwBJIkcKm07HD7f5KxS9bpZASuIcw5uWTzDMfLJsA728qOf2+zT0rgbkRO1fWBEvmkN2oMDAEItCFwolW9zdb/Nqho44NAcgLXQODuSh+pgE0IOCNwKVpvn7562rwphA8EeiOQpMD9I3J6X0R/3hs9BoYABO4QYHckCRETgWQF7gbis83JrhL5Jiao+AKBAgk0z9maK7bGBc6dKUdKIHmBa7heX+21yw7LSLMMt/IloPSRFr3Dc7Z8Q5zyzLIQuCYA1zssmzV/3imXckbiexoEELY04lS4l9kIHM/lCs9kph+EQHO9ltJ6hw0kQXAziCWBrATuhsXzF5NtrWSHJUvL7KA7BK4JIGykQooEshQ4lixTTEV8jpEAwhZjVPCpLYFsBe5dNbc12dFavmsLhHYQgICIKH0kWnZP95421+PxgUCSBLIXuCYqzT2Woqt9bj9JMkdxOiQBNo+EpM1YngkUIXANw+b2k3qp3qaa85xRmE+VAOfYUo0cfs8lUIzA3RCYHSfQ013R6jPyAgKFE7hUSnZ5L1vhWZDx9IsTuHfP5thpmXFaM7UFBE5E6122+pMnuRMoVuBuli2vBvUOV33lnubM75rAz3VV7fKyUfKhFAJFC9xNkIej8+F0abrPsmUpaV/OPJtt/pWW3aqu9sf7yxflzJyZQkAEgbuVBbO3hovaQej4aiRO4FJEDqjWEo8i7lsTQOAeQLi6ebahRTVvKeClqtYphoFwBNQvousDnq2FI85IcRNA4B6JT/OWAq1U84wOoYs7j0v27kRp2a/q6oBX1ZScBsz9IQIIXIu8YOmyBSSahCSAqIWkzVjJEkDgDEI3EzpdjUTkS4NuNIWACwIzUZsOqkN2QbrAiY0SCCBwHaLc7Lqsl+qR1rLNGws6AKRLWwJUam1J0Q4CDxBA4CzTYvY28UpG7Ly0BEn3hsCliDpsNooM6kHzTI1t/eQFBCwIIHAW8G53baq6q0HdVHQbbEpxBLUMMyda5FBUffDm5UeHZUyZWUIgDAEEzgPn5piBiNpoxI4lTA+AEzY5e79aI2haH1KlJRxIXE+CAALnOUyInWfAkZu/J2iHbOWPPGC4lxUBBC5gOK8PkK+zjBkQevihZkuOSuvjQT1A0MLzZ0QIvCOAwPWUDLOdmFW9oZVaF9Gf9+QGw1qcfUMlAAABPklEQVQQeFudqWOl9HEt9SHP0Cxg0hUCHgggcB6gdjHZnLGrpFrXotfZkdmFoN8+98Vs6WrpmF2OfpljHQK2BBA4W4Ke+s8Er67WmgpPi15jZ6Yn0O+bvRSlj7VWx5WW8f9X2cdUZsHYMxAEnBJA4Jzi9GdsODp/crV0tTar8rRaE9FDEfnU34iZW1b6SHR10Swv6lqPdaXHVGWZx5zpFUcAgUs85LPrw2o1VJUazoRP1U9Y4pwF9USUvphVYkoutNbHWukLRCzxhMd9CBgQQOAMYKXU9KbiU1o9Uaqp+ERmz/eaf2o1THHJc/YcTOnxLA5ajZWS2b/fiJdWSxfc05hSluIrBPwSQOD88o3e+sdfn68pffWkcfS2GN44rrUMRc2WQ51+VHMl1f1PLRfNM6/b/5vnX06xYwwCRRH4P+MltuoyLC5WAAAAAElFTkSuQmCC;" vertex="1" parent="9cq7SxsJMmVzWgC3gyxr-22">
          <mxGeometry x="128.72" y="404" width="92.56" height="65" as="geometry" />
        </mxCell>
        <mxCell id="9cq7SxsJMmVzWgC3gyxr-33" value="" style="shape=image;imageAspect=0;aspect=fixed;verticalLabelPosition=bottom;verticalAlign=top;image=data:image/png,iVBORw0KGgoAAAANSUhEUgAAAbgAAAE1CAYAAACV5PW1AAAAAXNSR0IArs4c6QAAIABJREFUeF7tnU1CJMXWhk9kMbeRdmTT1l2B3BXIXYG4AssGx+IKxBVcHNu0uIKLKxBWIKzAsmlHUgJzKuP7shpaoCkqI+Mn4+epiT8dceLEc07V2ycyIlIJHwhAYEbg+dZkR2v5LjUcp3srKjWf8RcCIQjwxQhBmTGSIIDAJREmnIRAawIIXGtUNMydAAKXe4SZX2kEELjSIs585xJA4EgOCORFAIHLK57MxoIAAmcBj64QiJAAAhdhUHCpHwIIXD/cGRUCvgggcL7IYjc5AghcciHDYQg8SgCBI0EgcE0AgSMVIJAXAQQur3gyGwsCCJwFPLpCIEICCFyEQcGlfgggcP1wZ1QI+CKAwPkii93kCCBwyYUMhyHAMzhyAAJtCCBwbSjRBgLpEKCCSydWeOqZAALnGTDmIRCYAAIXGDjDxUsAgYs3NngGgS4EELgu1OiTJQEELsuwMqmCCSBwBQefqd8lgMCRERDIiwACl1c8mY0FAQTOAh5dIRAhAQQuwqDgUj8EELh+uDMqBHwRQOB8kcVucgQQuORChsMQeJQAAkeCQOCaAAJHKkAgLwIIXF7xZDYWBBA4C3h0hUCEBBC4CIOCS/0QQOD64c6oEPBFAIHzRRa7yRFA4JILGQ5DgGdw5AAE2hBA4NpQog0E0iFABZdOrPDUMwEEzjNgzEMgMAEELjBwhouXAAIXb2zwDAJdCCBwXajRJ0sCCFyWYWVSBRNA4AoOPlO/SwCBIyMgkBcBBC6veDIbCwIInAU8ukIgQgIIXIRBwaV+CCBw/XBnVAj4IoDA+SKL3eQIIHDJhQyHIfAoAQSOBIHANQEEjlSAQF4EELi84slsLAggcBbw6AqBCAkgcBEGBZf6IYDA9cOdUSHgiwAC54ssdpMjgMAlFzIchgDP4MgBCLQhgMC1oUQbCKRDgAounVjhqWcCCJxnwJiHQGACCFxg4AwXLwEELt7Y4BkEuhBA4LpQo0+WBBC4LMPKpAomgMAVHHymfpcAAkdGQCAvAghcXvFkNhYEEDgLeHSFQIQEELgIg4JL/RBYfXE2kkpG/YzefdTTl0/Xu/emJwTyJYDA5RtbZgYBCECgaAIIXNHhZ/IQgAAE8iWAwOUbW2YGAQhAoGgCCFzR4WfyEIAABPIlgMDlG1tmBgEIQKBoAghc0eFn8hCAAATyJYDA5RtbZgYBCECgaAIIXNHhZ/IQgAAE8iWAwHmOba63Y6xuTrRndM7NKyXfv365sjPPcK6xcg4SgxBIhAAC5zlQuf5oInCeE8fA/OneCt9jA140LYcAXwzPsUbgPAM2ME8FZwCLphDIgAAC5zmICJxnwAbmETgDWDSFQAYEEDjPQUTgPAM2MI/AGcCiKQQyIIDAeQ4iAucZsIF5BM4AFk0hkAEBBM5zEBE4z4ANzCNwBrBoCoEMCCBwnoOIwHkGbGAegTOARVMIZEAAgfMcRATOM2AD8wicASyaQiADAgic5yAicJ4BG5hH4Axg0RQCGRBA4DwHEYHzDNjAPAJnAIumVgSGo/MnjYHx/vKFlSE6WxFA4KzwLe6MwC1mFKoFAheKNOOsbv59oEWviapHb15+dAiRfgggcJ65I3CeARuYR+AMYNG0M4HVzbMNEfW/GwNa5IelabVDNdcZaeeOCFxndO06InDtOIVohcCFoFz2GM3S5HRQj0Xkg3skTuqqGv354/Jx2YTCzh6B88wbgfMM2MA8AmcAi6adCDRLkyL683mdF+Vgp0HpNJcAAuc5ORA4z4ANzC/6cck1VgaIaGpB4P7S5COmqOYsOJt0ReBMaHVom+uPJq/L6ZAMnrrwuhxPYA3MPrI0Ob+6WPB+QoPhaTqHAALnOTUQOM+ADcxTwRnAoqkRgUVLk49Vc4NptTHeX26e2/FxTACBcwz0vjkEzjNgA/MInAEsmrYmYLA0Oc/mZV1V62xAaY28dUMErjWqbg0RuG7cfPRC4HxQLdtml6XJucS0/ur01dP9som6nT0C55bne9YQOM+ADcwjcAawaNqKgMXS5IP2mzNzb/ZWtlsNTqOFBBC4hYjsGiBwdvxc9kbgXNLE1rOtv9aVrn71QOLn072VkQe7xZlE4DyHHIHzDNjAPAJnAIumCwk825yMlcgnCxt2aaD00eBq0Gw+4S7LLvyu+yBwFvDadEXg2lAK0waBC8O5hFECfa9PBtNqHZHrnlEIXHd2rXoG+iK08sWk0aKzVZyDM6Hpt+2iWPkdvTzrTjeWLMaHyC1mNLcFAmcBr01XBK4NpTBtqODCcM59lGebk10l8k3AeSJyHWEjcB3Bte2GwLUl5b8dAuefce4jDEfnw+mg/r2HeSJyHaAjcB2gmXRB4Exo+W2LwPnlW4L11c1Jc07ty57misgZgkfgDIGZNkfgTIn5a4/A+WNbguXAz97mIFW/nO59uFECbxdzROBcUHzEBgLnGbCBeQTOABZN3yMQ0XeZc3It8xOBawmqa7OIvhRGU1i0M49dlEY4vTZeFCuvgxdk3Ou5N0OOSsu3r1+t7Bp2K645Auc55AicZ8AG5qngDGDR9A4BBxcqeyCqvzjde3rgwXA2JhE4z6FE4DwDNjCPwBnAouk9gXv8Td094eItBAvAI3CeMxOB8wzYwDwCZwCLpu8I9Hg0oE0U2Fn5CCUErk0KWbRB4CzgOe6KwDkGWoi55y8m21rJf2OdLm8gmB8ZBM5z1iJwngEbmEfgDGDR9B2B1c3JsYh8GjcSnsc9FB8EznPWInCeARuYR+AMYNF0RiDy5cnbUbocTKshFzPfTVwEzvMXGYHzDNjAPAJnAIumMwKxL0/e+znnEPi9vEXgPH+RETjPgA3MI3AGsGg6I+D6jd3+sbJUeZsxAuc54xA4z4ANzCNwBrBoei1wE50SCi3yx9K0WmOp8m3UEDjP2YvAeQZsYB6BM4BFU3m29de60tWvqaFYlOepzcfGXwTOhl6LvghcC0iBmiz64ucaq0B4sxsm1XwQkWbDSVPFjbMLiuGEEDhDYDSHAATKILC6dXYoWn2W6Gy5kJklykRTF7chAAHvBFK8UPw2lMG0+lfpVRwVnPevCQNAAAKpEfj46/O1qq5/S83ve/4WX8UhcIlnMO5DAALuCay+OBuJUj+5txzWYulVHAIXNt8YDQIQSIDAs83JrhL5JgFXH3Vx0caq1Oe3yH8EbhEh/hwCECiOQOIbTG7H6/J0b+VJcQG8njACV2rkmTcEIDCXwOrm5EJEPsgCkdZfnb56up/FXAwngcAZAqM5BCCQP4HUd1DejZAq9o7KqAQuxaRatMad6mHR072VR3ODWMXzI78wVime51L66PTl0/U+KKd6g8ljrAbTarnE67sQOMtvEAJnCTBg92JjhcAZZVmOAieFLlMicEap/37jYn80N9O6hLaJXLGxQuCMvuWprro8PskylykROKPUR+BuCLBEaZk4DruzROkQZvMOuK3JjtbynVur/VsrcZkSgbPMu2KrAio4y8xx1x2Bc8eysZTLGbj3qZT3rjgEzvK7gcBZAgzYvdhYsURplGUZnYG7M28t8sObvZVtIxiJN0bgLANY7I8mFZxl5rjrTgXnjmVjKVeBE5GT072VNbe04raGwFnGB4GzBBiwe7GxooIzyrKMBU4W/WXICFQCjRE4yyAV+6NJBWeZOe66L/rRSvIHu8dzcEnyaplOWtX/efPyo8OWzZNvhsBZhhCBswQYsHuxsaKCM8qynAVOafn29auVXSMgCTdG4CyDV+yPJhWcZea4604F545l5s/g3jsLOhydP7laulpTWj1RSs2ez2ktQ1F6+I6qVs1lzZ8+QvlElG7u7nz70dWFUvp49q+1HutKj5eulsZ9vHwVgbP8biBwlgADdi82VlRwRlmWcwWnRf5QIoczAdPqMyMwbhqfiKhxI4Ba6+PBdHDsU/gQOMugFfujSQVnmTnuulPBuWOZewXnlpQza5ci6lBpfTgdVId//rg8q/5cfBA4S4oInCXAgN2LjRUVnFGW5VzBGYHoqfG7KlP0wene0wMbNxA4G3ol329IBWeZOe66U8G5Y0kF55alA2uXWmR/aVrtdlnKROAsI1BsVYDAWWaOu+4InDuWCJxblk6tKX2kRe+YHHNA4CwjgMBZAgzYvdhYsURplGUsURrhCt9Y6aNaDbbbPKtD4CzDU+yPJhWcZea4604F545lYynfy5bdcurb2qLf3sY/BM4ySosgp/rqjYU/mgicZea4674wVlRwRrBT/c4aTTKfxid1VY3mVXMInGWgEThLgAG7FxsrBM4oy1ZfnI1EqZ+MOtG4VwLzbmhB4CzDUuyPJhWcZea4604F547lbIly6691patf3VrFmncCSh8Nrgaj27stEThL6gicJcCA3YuNFRWccZal+MZ640nm2eFSadm5uW8TgbMMcrE/mlRwlpnjrjsVnDuWN5aebU7GSuQT95axGITAdTWHwFnSRuAsAQbsXmysqOCMs2x18+8DEf25cUc6xETgEoGzDEexP5pUcJaZ4647FZw7ljeW2Enpnmlwi0ofIXCW1BE4S4ABuxcbKyo44yxjo4kxsug6NC93ReAsw1LsjyYVnGXmuOtOBeeO5W1LbDTxwzWI1es3wiNwlrQROEuAAbsXGysquE5Ztro5aV7b8tiLPjvZpZN/Ak311txZicBZsi72R5MKzjJz3HWngnPH8rYlnsP54erd6nX11oyDwFnSRuAsAQbsXmysqOA6ZdnHX5+vVXX9W6fOdOqRgP7i5j1yCJxlGIr90aSCs8wcd92p4NyxvG+J83D+2Pqw3Lws9c3eyvDGNgJnSRmBswQYsHuxsaKC65xlq5uTfRH5srMBOoYloPVXp6+eNjGbfRA4S/zF/mhSwVlmjrvuVHDuWN63xDKlP7auLd+v3hA4B4QROAcQA5koNlZUcFYZxjKlFb5wne9VbwicA/TF/mhSwTnIHjcmqODccJxnhd2Ufvm6sP5Q9YbAOSCLwDmAGMhEsbGigrPKsOHofDgd1L9bGaGzXwIPVG8InAPkxf5oUsE5yB43Jqjg3HB8zAqbTfwzthjh5HRvZe2h/mwysaA6+xuCku9fv1zZyW15Y+GPJgJnmTnuui+MFRWcNWyqOGuE3gzc3FqCwHlAjMB5gOrJZLGxQuCcZNRqihydzDxmI+qX070PN+Z5SAVnGbtifzSp4Cwzx113Kjh3LB+zxJGBMJwNRrkcTKu18f7yGIEzoGbSFIEzodVv22JjlWLlces+wX6z5u7oPIuLJxqLvs+zR0jxuCuS4uspFkFOdYvxwqqACi6ar87CWCFwzmI1HJ0/mQ7qpmL4wJlRDHUhMHdjyW1jUQlcl1nSBwIQgEBIAs82J7tK5JuQYzLWHQKXdVWt//njcvM6o0c/CNwiQvw5BCAAARGZveVb1I5o9RlA+iOgtHz7+tXKbhsPELg2lGgDAQgUS2D1xdlIKhkhbDGkwOO7Ju97iMDFEDN8gAAEoiLQnHu7GtTbIrKhRD6JyrlynTkZTKv18f7yRVsECFxbUrSDAASyJtCIWl3VG1rJSEQ+zXqy6U2u9XO321ND4NILNB5DAAIOCLzdETld16LWqdQcAPVooq6qf7fZVMISpccgYBoCEIiXwGyTSK2GWqk1JdKIGlVavOH6x7M5Fym3cZ0Krg0l2kAAAlETaG4ZUfrqSeNkI2KqUsNayxOl9JrWashztKjDN985C3Gb5cKN5VQPJCcaNtyGAAQgAIHHCFiK2x2BW938+0BEfw5xCEAAAhCAQK8EHIjbHYHjtey9hpPBIQABCEBA5FKreuPNy48OXcB4t0SZ4j2QLgBgAwIQgAAE+iegRf7QVbXRZbfkPO9nAjfbXaSrX/ufIh5AAAIQgEB5BNQvg6kamRzibsNoJnCrm2cbIup/bTrQBgIQgAAEIOCKgMndkqZjzgSOHZSm2GgPAQhAAAKWBE7qqhq5XJK87w8CZxkhukMAAhCAgBGBS6Vk9/XLlR2jXh0av12iTPGFiB0mSxcIQAACEOiTwOxZ2/Z4f7l5aaz3DwLnHTEDQAACECicgNJHWvSOq+3/bWkicG1J0Q4CEIAABMwI9CRsN05e76KcNO/X+cDMc1pDAAIQgAAE3iNwKSIHg2m1E2opcl4MbgROEyQIQAACEICABYET0Xp3UA8OXJ9n6+oTAteVHP0gAAEIlE5A6SNVq4OqrhpRC7JxxAQ5AmdCi7YQgAAEyiZwokUOlejDwXRwGEulxhJl2UnJ7CEAAQiYEVD6SLQaKyXjWurD0DsgzZx9uDUVnAuK2IAABCCQBoFLUfr4nau6ulDX/621PtZKXyxdLR3HXpm1Ra2Go/PhdFD/3rYD7SAAAQhAIEICjt6hFuHMOrukeJNAZ3Z0hAAEIBALgcvBtBrmUnm5gorAuSKJHQhAAAI9EdAiP7zZW9nuafhoh0Xgog0NjkEAAhBoR2Awrf4V4zb9dt77a4XA+WOLZQhAAAIBCKhfTvc+3AgwUHJDsIsyuZDhMAQgAIF/CGhV/yfFLfwhYojAhaDMGBCAAAQ8ENAif7zZWxl6MJ2FSQQuizAyCQhAoEgCHA14NOwIXJHfCiYNAQhkQODydG/lSQbz8DYFBM4bWgxDAAIQ8EdAKfn+9cuVHX8jpG8ZgUs/hswAAhAojwAHu1vEnBeetoBEEwhAAAIxEeBgd7tovBW4rbND0eqzdl1oBQEIQAACfRLgYHc7+ghcO060ggAEIBALgZ9P91ZGsTgTsx8IXMzRwTcIQAAC9whQvbVPiZnAPduc7CqRb9p3oyUEIAABCPRAgOrNAPpM4J5vTXa0lu8M+tEUAhCAAAQCE6B6MwOOwJnxojUEIACBvghQvRmSf7tEufXXutLVr4Z9aQ4BCEAAAoEIUL2Zg0bgzJnRAwIQgEBoAlRvHYjPBG44On8yHdTnHfrTBQIQgAAEPBOgeusGeCZwzWd1c6K7maAXBCAAAQh4JED11hHuO4F7tjkZK5FPOtqhGwQgAAEIeCBA9dYd6j8VHNd1dadITwhAAAIeCHDnpB3U2xUch73tWNIbAhCAgEsCvDHAkuY7geOwtyVJukMAAhBwSID3vdnD/KeC4yycPU0sQAACEHBAQIv8sTSt1sb7yxcOzBVr4p3Affz1+VpV178VS4KJQwACEIiFgNZfnb56uh+LO6n68U7gmglwVCDVMOI3BCCQEYGT072VtYzm09tU7gvcsYh82ps3DAwBCECgcAJa1f958/Kjw8IxOJn+PYH7+0BEf+7EMkYgAAEIQMCQgPrldO/DDcNONJ9D4I7AsZOSPIEABCDQG4HmWECzsWTcmweZDXxH4HirQGbRZToQgEAyBDgW4D5UdwSOS5fdA8YiBCAAgUUEOBawiFC3P78jcI0J7qTsBpJeEIAABLoT0F+c7j096N6fng8ReE/gVjfZaEKqQAACEAhHgI0lvli/J3BsNPGFGrsQgAAE3iPAxhKPSfH+EiVXdnnEjWkIQAAC/xBgY4nfbHhP4JrhuNHEL3SsQwACEBARbizxnAbzBI4bTTyDxzwEIFA2gbqq/v3nj8vNby0fTwQeFLhnmxPeDecJOGYhAAEI8CLTMDkwp4I72xBR/wvjAqNAAAIQKIcAZ97CxfpBgePAd7gAMBIEIFAWAS5TDhfvBwWuGX51c8JzuHBxYCQIQKAAAixNhg3yXIHjPFzYQDAaBCCQNwGWJsPHd67AcfFy+GAwIgQgkC8BlibDx3auwF0vU16IyAfh3WJECEAAAvkQ4EB3P7FcIHDcS9lPWBgVAhDIiAAHunsK5uMC9+JsJEr91JNvDAsBCEAgdQKXdVWtc6C7nzA+KnAcF+gnKIwKAQjkQUBp+fb1q5XdPGaT3iweFbjZc7its0PR6rP0pobHEIAABPokwGtw+qTfjL1Q4J6/mGxrJf/t21HGhwAEIJAKAY4ExBGphQI3HJ0Pp4P69zjcxQsIQAAC8RPgSEAcMVoocLNlSm41iSNaeAEBCERPgCMB8YSolcCxTBlPwPAEAhCImIDSR6cvn65H7GFRrrUSOHZTFpUTTBYCEOhAgOduHaB57tJK4N4uU3Lo23MsMA8BCCRMgBeYxhe89gLHoe/4oodHEIBAHAS0/ur01dP9OJzBixsCrQXubRU34W5KcgcCEIDAXQI/n+6tjIASHwFTgWv+hvJlfNPAIwhAAAK9EOCeyV6wtxvUSOA+/vp8rarr39qZphUEIACBrAlcDqbVcLy/3Kxs8YmQgJHAXS9T8qbvCAOJSxCAQFACXKIcFHe3wcwFjs0m3UjTCwIQyIcAm0qSiKWxwF1XcWw2SSK8OAkBCLgmwE0lron6s9dJ4J5vTXa0lu/8uYVlCEAAAlESYMdklGF52KlOAscFzAlFGFchAAE3BLiGyw3HgFY6Cdz1MiVHBgIGiqEgAIFeCZwMptU6OyZ7jYHx4J0FjirOmDUdIACBNAlwHCDNuC1+4elj8+Jt34lGHbchAIG2BDgO0JZUhO06V3DNXJ5t/bWudPVrhPPCJQhAAAK2BBA3W4I997cSuNmzuK2zQ9Hqs57nwfAQgAAEHBPQX5zuPT1wbBRzAQlYCxxVXMBoMRQEIBCGAAe5w3D2PIq1wFHFeY4Q5iEAgbAEELewvD2O5kTgqOI8RgjTEIBAOAKIWzjWAUZyInCzKo43fgcIF0NAAALeCCBu3tD2ZdiZwHEurq8QMi4EIGBNAHGzRhijAWcC97aKm3C7SYxRxicIQGA+AcQt2+xwKnDD0fmT6aAei8gH2RJjYhCAQD4EELd8YvnATJwKXGOfNw1knS9MDgL5EEDc8onlnJk4F7hmnGebk7ES+SR7ekwQAhBIkwDilmbcDL32I3Bc4WUYBppDAALBCCBuwVD3PZAXgWsmxbGBvkPL+BCAwHsEELeiksKbwLHhpKg8YrIQiJ0AFyfHHiEP/nkTuMbX5y8m21rJfz34jUkIQAACbQkgbm1JZdbOq8DNlip520BmKcN0IJAUgZO6qkZ//rh8nJTXOOuEgHeBu77hpEkuzsY5CRlGIACBlgROBtNqfby/fNGyPc0yI+Bd4FiqzCxjmA4E0iDw82BabSNuaQTLl5dBBG62VMllzL5iiF0IQOAWAS3yw5u9lW2gQCCYwLGrkmSDAAS8E+AYgHfEKQ0QTOAaKLw3LqXUwFcIJEWAnZJJhSuMs0EFbvY8bmuyo7V8F2Z6jAIBCBRAoNlMsjHeX24ueucDgXcEggtcMzJHB8hACEDAEQE2kzgCmaOZXgSO53E5phJzgkBYAkrLt69freyGHZXRUiLQi8A1gD7++nytquvfUoKFrxCAQBQELrWqN968/OgwCm9wIloCvQncbKnyxdlIlPopWjo4BgEIxEVA6aPB1aB53sbh7bgiE6U3vQrcTOQ2J/si8mWUdHAKAhCIhoBS8v3rlys70TiEI9ET6F3gZiLHfZXRJwoOQqBHAixJ9gg/5aGjELjrTSfNevqnKcPEdwhAwDEBliQdAy3LXBQC1yDnUuayEo/ZQmARAXZJLiLEny8iEI3ANY5e76xsKjnePLAocvw5BPIlwCtu8o1t0JlFJXCIXNDYMxgEoiPQXJS8NK122CUZXWiSdCg6gWsocnwgyVzCaQh0JqBF/hBVjzjb1hkhHR8gEKXAIXLkKgTKIUDVVk6sQ880WoFD5EKnAuNBICwBqrawvEscLWqBQ+RKTEnmXAKB5tB2dVXt8qythGj3N8foBQ6R6y85GBkCzgkofVSrwfafPy4fO7eNQQjcI5CEwDU+X78s9YAjBOQwBJIkcKm07HD7f5KxS9bpZASuIcw5uWTzDMfLJsA728qOf2+zT0rgbkRO1fWBEvmkN2oMDAEItCFwolW9zdb/Nqho44NAcgLXQODuSh+pgE0IOCNwKVpvn7562rwphA8EeiOQpMD9I3J6X0R/3hs9BoYABO4QYHckCRETgWQF7gbis83JrhL5Jiao+AKBAgk0z9maK7bGBc6dKUdKIHmBa7heX+21yw7LSLMMt/IloPSRFr3Dc7Z8Q5zyzLIQuCYA1zssmzV/3imXckbiexoEELY04lS4l9kIHM/lCs9kph+EQHO9ltJ6hw0kQXAziCWBrATuhsXzF5NtrWSHJUvL7KA7BK4JIGykQooEshQ4lixTTEV8jpEAwhZjVPCpLYFsBe5dNbc12dFavmsLhHYQgICIKH0kWnZP95421+PxgUCSBLIXuCYqzT2Woqt9bj9JMkdxOiQBNo+EpM1YngkUIXANw+b2k3qp3qaa85xRmE+VAOfYUo0cfs8lUIzA3RCYHSfQ013R6jPyAgKFE7hUSnZ5L1vhWZDx9IsTuHfP5thpmXFaM7UFBE5E6122+pMnuRMoVuBuli2vBvUOV33lnubM75rAz3VV7fKyUfKhFAJFC9xNkIej8+F0abrPsmUpaV/OPJtt/pWW3aqu9sf7yxflzJyZQkAEgbuVBbO3hovaQej4aiRO4FJEDqjWEo8i7lsTQOAeQLi6ebahRTVvKeClqtYphoFwBNQvousDnq2FI85IcRNA4B6JT/OWAq1U84wOoYs7j0v27kRp2a/q6oBX1ZScBsz9IQIIXIu8YOmyBSSahCSAqIWkzVjJEkDgDEI3EzpdjUTkS4NuNIWACwIzUZsOqkN2QbrAiY0SCCBwHaLc7Lqsl+qR1rLNGws6AKRLWwJUam1J0Q4CDxBA4CzTYvY28UpG7Ly0BEn3hsCliDpsNooM6kHzTI1t/eQFBCwIIHAW8G53baq6q0HdVHQbbEpxBLUMMyda5FBUffDm5UeHZUyZWUIgDAEEzgPn5piBiNpoxI4lTA+AEzY5e79aI2haH1KlJRxIXE+CAALnOUyInWfAkZu/J2iHbOWPPGC4lxUBBC5gOK8PkK+zjBkQevihZkuOSuvjQT1A0MLzZ0QIvCOAwPWUDLOdmFW9oZVaF9Gf9+QGw1qcfUMlAAABPklEQVQQeFudqWOl9HEt9SHP0Cxg0hUCHgggcB6gdjHZnLGrpFrXotfZkdmFoN8+98Vs6WrpmF2OfpljHQK2BBA4W4Ke+s8Er67WmgpPi15jZ6Yn0O+bvRSlj7VWx5WW8f9X2cdUZsHYMxAEnBJA4Jzi9GdsODp/crV0tTar8rRaE9FDEfnU34iZW1b6SHR10Swv6lqPdaXHVGWZx5zpFUcAgUs85LPrw2o1VJUazoRP1U9Y4pwF9USUvphVYkoutNbHWukLRCzxhMd9CBgQQOAMYKXU9KbiU1o9Uaqp+ERmz/eaf2o1THHJc/YcTOnxLA5ajZWS2b/fiJdWSxfc05hSluIrBPwSQOD88o3e+sdfn68pffWkcfS2GN44rrUMRc2WQ51+VHMl1f1PLRfNM6/b/5vnX06xYwwCRRH4P+MltuoyLC5WAAAAAElFTkSuQmCC;" vertex="1" parent="9cq7SxsJMmVzWgC3gyxr-22">
          <mxGeometry x="45" y="69" width="92.56" height="65" as="geometry" />
        </mxCell>
        <mxCell id="9cq7SxsJMmVzWgC3gyxr-43" value="" style="shape=image;imageAspect=0;aspect=fixed;verticalLabelPosition=bottom;verticalAlign=top;image=data:image/png,iVBORw0KGgoAAAANSUhEUgAAAbgAAAE1CAYAAACV5PW1AAAAAXNSR0IArs4c6QAAIABJREFUeF7tnU1CJMXWhk9kMbeRdmTT1l2B3BXIXYG4AssGx+IKxBVcHNu0uIKLKxBWIKzAsmlHUgJzKuP7shpaoCkqI+Mn4+epiT8dceLEc07V2ycyIlIJHwhAYEbg+dZkR2v5LjUcp3srKjWf8RcCIQjwxQhBmTGSIIDAJREmnIRAawIIXGtUNMydAAKXe4SZX2kEELjSIs585xJA4EgOCORFAIHLK57MxoIAAmcBj64QiJAAAhdhUHCpHwIIXD/cGRUCvgggcL7IYjc5AghcciHDYQg8SgCBI0EgcE0AgSMVIJAXAQQur3gyGwsCCJwFPLpCIEICCFyEQcGlfgggcP1wZ1QI+CKAwPkii93kCCBwyYUMhyHAMzhyAAJtCCBwbSjRBgLpEKCCSydWeOqZAALnGTDmIRCYAAIXGDjDxUsAgYs3NngGgS4EELgu1OiTJQEELsuwMqmCCSBwBQefqd8lgMCRERDIiwACl1c8mY0FAQTOAh5dIRAhAQQuwqDgUj8EELh+uDMqBHwRQOB8kcVucgQQuORChsMQeJQAAkeCQOCaAAJHKkAgLwIIXF7xZDYWBBA4C3h0hUCEBBC4CIOCS/0QQOD64c6oEPBFAIHzRRa7yRFA4JILGQ5DgGdw5AAE2hBA4NpQog0E0iFABZdOrPDUMwEEzjNgzEMgMAEELjBwhouXAAIXb2zwDAJdCCBwXajRJ0sCCFyWYWVSBRNA4AoOPlO/SwCBIyMgkBcBBC6veDIbCwIInAU8ukIgQgIIXIRBwaV+CCBw/XBnVAj4IoDA+SKL3eQIIHDJhQyHIfAoAQSOBIHANQEEjlSAQF4EELi84slsLAggcBbw6AqBCAkgcBEGBZf6IYDA9cOdUSHgiwAC54ssdpMjgMAlFzIchgDP4MgBCLQhgMC1oUQbCKRDgAounVjhqWcCCJxnwJiHQGACCFxg4AwXLwEELt7Y4BkEuhBA4LpQo0+WBBC4LMPKpAomgMAVHHymfpcAAkdGQCAvAghcXvFkNhYEEDgLeHSFQIQEELgIg4JL/RBYfXE2kkpG/YzefdTTl0/Xu/emJwTyJYDA5RtbZgYBCECgaAIIXNHhZ/IQgAAE8iWAwOUbW2YGAQhAoGgCCFzR4WfyEIAABPIlgMDlG1tmBgEIQKBoAghc0eFn8hCAAATyJYDA5RtbZgYBCECgaAIIXNHhZ/IQgAAE8iWAwHmOba63Y6xuTrRndM7NKyXfv365sjPPcK6xcg4SgxBIhAAC5zlQuf5oInCeE8fA/OneCt9jA140LYcAXwzPsUbgPAM2ME8FZwCLphDIgAAC5zmICJxnwAbmETgDWDSFQAYEEDjPQUTgPAM2MI/AGcCiKQQyIIDAeQ4iAucZsIF5BM4AFk0hkAEBBM5zEBE4z4ANzCNwBrBoCoEMCCBwnoOIwHkGbGAegTOARVMIZEAAgfMcRATOM2AD8wicASyaQiADAgic5yAicJ4BG5hH4Axg0RQCGRBA4DwHEYHzDNjAPAJnAIumVgSGo/MnjYHx/vKFlSE6WxFA4KzwLe6MwC1mFKoFAheKNOOsbv59oEWviapHb15+dAiRfgggcJ65I3CeARuYR+AMYNG0M4HVzbMNEfW/GwNa5IelabVDNdcZaeeOCFxndO06InDtOIVohcCFoFz2GM3S5HRQj0Xkg3skTuqqGv354/Jx2YTCzh6B88wbgfMM2MA8AmcAi6adCDRLkyL683mdF+Vgp0HpNJcAAuc5ORA4z4ANzC/6cck1VgaIaGpB4P7S5COmqOYsOJt0ReBMaHVom+uPJq/L6ZAMnrrwuhxPYA3MPrI0Ob+6WPB+QoPhaTqHAALnOTUQOM+ADcxTwRnAoqkRgUVLk49Vc4NptTHeX26e2/FxTACBcwz0vjkEzjNgA/MInAEsmrYmYLA0Oc/mZV1V62xAaY28dUMErjWqbg0RuG7cfPRC4HxQLdtml6XJucS0/ur01dP9som6nT0C55bne9YQOM+ADcwjcAawaNqKgMXS5IP2mzNzb/ZWtlsNTqOFBBC4hYjsGiBwdvxc9kbgXNLE1rOtv9aVrn71QOLn072VkQe7xZlE4DyHHIHzDNjAPAJnAIumCwk825yMlcgnCxt2aaD00eBq0Gw+4S7LLvyu+yBwFvDadEXg2lAK0waBC8O5hFECfa9PBtNqHZHrnlEIXHd2rXoG+iK08sWk0aKzVZyDM6Hpt+2iWPkdvTzrTjeWLMaHyC1mNLcFAmcBr01XBK4NpTBtqODCcM59lGebk10l8k3AeSJyHWEjcB3Bte2GwLUl5b8dAuefce4jDEfnw+mg/r2HeSJyHaAjcB2gmXRB4Exo+W2LwPnlW4L11c1Jc07ty57misgZgkfgDIGZNkfgTIn5a4/A+WNbguXAz97mIFW/nO59uFECbxdzROBcUHzEBgLnGbCBeQTOABZN3yMQ0XeZc3It8xOBawmqa7OIvhRGU1i0M49dlEY4vTZeFCuvgxdk3Ou5N0OOSsu3r1+t7Bp2K645Auc55AicZ8AG5qngDGDR9A4BBxcqeyCqvzjde3rgwXA2JhE4z6FE4DwDNjCPwBnAouk9gXv8Td094eItBAvAI3CeMxOB8wzYwDwCZwCLpu8I9Hg0oE0U2Fn5CCUErk0KWbRB4CzgOe6KwDkGWoi55y8m21rJf2OdLm8gmB8ZBM5z1iJwngEbmEfgDGDR9B2B1c3JsYh8GjcSnsc9FB8EznPWInCeARuYR+AMYNF0RiDy5cnbUbocTKshFzPfTVwEzvMXGYHzDNjAPAJnAIumMwKxL0/e+znnEPi9vEXgPH+RETjPgA3MI3AGsGg6I+D6jd3+sbJUeZsxAuc54xA4z4ANzCNwBrBoei1wE50SCi3yx9K0WmOp8m3UEDjP2YvAeQZsYB6BM4BFU3m29de60tWvqaFYlOepzcfGXwTOhl6LvghcC0iBmiz64ucaq0B4sxsm1XwQkWbDSVPFjbMLiuGEEDhDYDSHAATKILC6dXYoWn2W6Gy5kJklykRTF7chAAHvBFK8UPw2lMG0+lfpVRwVnPevCQNAAAKpEfj46/O1qq5/S83ve/4WX8UhcIlnMO5DAALuCay+OBuJUj+5txzWYulVHAIXNt8YDQIQSIDAs83JrhL5JgFXH3Vx0caq1Oe3yH8EbhEh/hwCECiOQOIbTG7H6/J0b+VJcQG8njACV2rkmTcEIDCXwOrm5EJEPsgCkdZfnb56up/FXAwngcAZAqM5BCCQP4HUd1DejZAq9o7KqAQuxaRatMad6mHR072VR3ODWMXzI78wVime51L66PTl0/U+KKd6g8ljrAbTarnE67sQOMtvEAJnCTBg92JjhcAZZVmOAieFLlMicEap/37jYn80N9O6hLaJXLGxQuCMvuWprro8PskylykROKPUR+BuCLBEaZk4DruzROkQZvMOuK3JjtbynVur/VsrcZkSgbPMu2KrAio4y8xx1x2Bc8eysZTLGbj3qZT3rjgEzvK7gcBZAgzYvdhYsURplGUZnYG7M28t8sObvZVtIxiJN0bgLANY7I8mFZxl5rjrTgXnjmVjKVeBE5GT072VNbe04raGwFnGB4GzBBiwe7GxooIzyrKMBU4W/WXICFQCjRE4yyAV+6NJBWeZOe66L/rRSvIHu8dzcEnyaplOWtX/efPyo8OWzZNvhsBZhhCBswQYsHuxsaKCM8qynAVOafn29auVXSMgCTdG4CyDV+yPJhWcZea4604F545l5s/g3jsLOhydP7laulpTWj1RSs2ez2ktQ1F6+I6qVs1lzZ8+QvlElG7u7nz70dWFUvp49q+1HutKj5eulsZ9vHwVgbP8biBwlgADdi82VlRwRlmWcwWnRf5QIoczAdPqMyMwbhqfiKhxI4Ba6+PBdHDsU/gQOMugFfujSQVnmTnuulPBuWOZewXnlpQza5ci6lBpfTgdVId//rg8q/5cfBA4S4oInCXAgN2LjRUVnFGW5VzBGYHoqfG7KlP0wene0wMbNxA4G3ol329IBWeZOe66U8G5Y0kF55alA2uXWmR/aVrtdlnKROAsI1BsVYDAWWaOu+4InDuWCJxblk6tKX2kRe+YHHNA4CwjgMBZAgzYvdhYsURplGUsURrhCt9Y6aNaDbbbPKtD4CzDU+yPJhWcZea4604F545lYynfy5bdcurb2qLf3sY/BM4ySosgp/rqjYU/mgicZea4674wVlRwRrBT/c4aTTKfxid1VY3mVXMInGWgEThLgAG7FxsrBM4oy1ZfnI1EqZ+MOtG4VwLzbmhB4CzDUuyPJhWcZea4604F547lbIly6691patf3VrFmncCSh8Nrgaj27stEThL6gicJcCA3YuNFRWccZal+MZ640nm2eFSadm5uW8TgbMMcrE/mlRwlpnjrjsVnDuWN5aebU7GSuQT95axGITAdTWHwFnSRuAsAQbsXmysqOCMs2x18+8DEf25cUc6xETgEoGzDEexP5pUcJaZ4647FZw7ljeW2Enpnmlwi0ofIXCW1BE4S4ABuxcbKyo44yxjo4kxsug6NC93ReAsw1LsjyYVnGXmuOtOBeeO5W1LbDTxwzWI1es3wiNwlrQROEuAAbsXGysquE5Ztro5aV7b8tiLPjvZpZN/Ak311txZicBZsi72R5MKzjJz3HWngnPH8rYlnsP54erd6nX11oyDwFnSRuAsAQbsXmysqOA6ZdnHX5+vVXX9W6fOdOqRgP7i5j1yCJxlGIr90aSCs8wcd92p4NyxvG+J83D+2Pqw3Lws9c3eyvDGNgJnSRmBswQYsHuxsaKC65xlq5uTfRH5srMBOoYloPVXp6+eNjGbfRA4S/zF/mhSwVlmjrvuVHDuWN63xDKlP7auLd+v3hA4B4QROAcQA5koNlZUcFYZxjKlFb5wne9VbwicA/TF/mhSwTnIHjcmqODccJxnhd2Ufvm6sP5Q9YbAOSCLwDmAGMhEsbGigrPKsOHofDgd1L9bGaGzXwIPVG8InAPkxf5oUsE5yB43Jqjg3HB8zAqbTfwzthjh5HRvZe2h/mwysaA6+xuCku9fv1zZyW15Y+GPJgJnmTnuui+MFRWcNWyqOGuE3gzc3FqCwHlAjMB5gOrJZLGxQuCcZNRqihydzDxmI+qX070PN+Z5SAVnGbtifzSp4Cwzx113Kjh3LB+zxJGBMJwNRrkcTKu18f7yGIEzoGbSFIEzodVv22JjlWLlces+wX6z5u7oPIuLJxqLvs+zR0jxuCuS4uspFkFOdYvxwqqACi6ar87CWCFwzmI1HJ0/mQ7qpmL4wJlRDHUhMHdjyW1jUQlcl1nSBwIQgEBIAs82J7tK5JuQYzLWHQKXdVWt//njcvM6o0c/CNwiQvw5BCAAARGZveVb1I5o9RlA+iOgtHz7+tXKbhsPELg2lGgDAQgUS2D1xdlIKhkhbDGkwOO7Ju97iMDFEDN8gAAEoiLQnHu7GtTbIrKhRD6JyrlynTkZTKv18f7yRVsECFxbUrSDAASyJtCIWl3VG1rJSEQ+zXqy6U2u9XO321ND4NILNB5DAAIOCLzdETld16LWqdQcAPVooq6qf7fZVMISpccgYBoCEIiXwGyTSK2GWqk1JdKIGlVavOH6x7M5Fym3cZ0Krg0l2kAAAlETaG4ZUfrqSeNkI2KqUsNayxOl9JrWashztKjDN985C3Gb5cKN5VQPJCcaNtyGAAQgAIHHCFiK2x2BW938+0BEfw5xCEAAAhCAQK8EHIjbHYHjtey9hpPBIQABCEBA5FKreuPNy48OXcB4t0SZ4j2QLgBgAwIQgAAE+iegRf7QVbXRZbfkPO9nAjfbXaSrX/ufIh5AAAIQgEB5BNQvg6kamRzibsNoJnCrm2cbIup/bTrQBgIQgAAEIOCKgMndkqZjzgSOHZSm2GgPAQhAAAKWBE7qqhq5XJK87w8CZxkhukMAAhCAgBGBS6Vk9/XLlR2jXh0av12iTPGFiB0mSxcIQAACEOiTwOxZ2/Z4f7l5aaz3DwLnHTEDQAACECicgNJHWvSOq+3/bWkicG1J0Q4CEIAABMwI9CRsN05e76KcNO/X+cDMc1pDAAIQgAAE3iNwKSIHg2m1E2opcl4MbgROEyQIQAACEICABYET0Xp3UA8OXJ9n6+oTAteVHP0gAAEIlE5A6SNVq4OqrhpRC7JxxAQ5AmdCi7YQgAAEyiZwokUOlejDwXRwGEulxhJl2UnJ7CEAAQiYEVD6SLQaKyXjWurD0DsgzZx9uDUVnAuK2IAABCCQBoFLUfr4nau6ulDX/621PtZKXyxdLR3HXpm1Ra2Go/PhdFD/3rYD7SAAAQhAIEICjt6hFuHMOrukeJNAZ3Z0hAAEIBALgcvBtBrmUnm5gorAuSKJHQhAAAI9EdAiP7zZW9nuafhoh0Xgog0NjkEAAhBoR2Awrf4V4zb9dt77a4XA+WOLZQhAAAIBCKhfTvc+3AgwUHJDsIsyuZDhMAQgAIF/CGhV/yfFLfwhYojAhaDMGBCAAAQ8ENAif7zZWxl6MJ2FSQQuizAyCQhAoEgCHA14NOwIXJHfCiYNAQhkQODydG/lSQbz8DYFBM4bWgxDAAIQ8EdAKfn+9cuVHX8jpG8ZgUs/hswAAhAojwAHu1vEnBeetoBEEwhAAAIxEeBgd7tovBW4rbND0eqzdl1oBQEIQAACfRLgYHc7+ghcO060ggAEIBALgZ9P91ZGsTgTsx8IXMzRwTcIQAAC9whQvbVPiZnAPduc7CqRb9p3oyUEIAABCPRAgOrNAPpM4J5vTXa0lu8M+tEUAhCAAAQCE6B6MwOOwJnxojUEIACBvghQvRmSf7tEufXXutLVr4Z9aQ4BCEAAAoEIUL2Zg0bgzJnRAwIQgEBoAlRvHYjPBG44On8yHdTnHfrTBQIQgAAEPBOgeusGeCZwzWd1c6K7maAXBCAAAQh4JED11hHuO4F7tjkZK5FPOtqhGwQgAAEIeCBA9dYd6j8VHNd1dadITwhAAAIeCHDnpB3U2xUch73tWNIbAhCAgEsCvDHAkuY7geOwtyVJukMAAhBwSID3vdnD/KeC4yycPU0sQAACEHBAQIv8sTSt1sb7yxcOzBVr4p3Affz1+VpV178VS4KJQwACEIiFgNZfnb56uh+LO6n68U7gmglwVCDVMOI3BCCQEYGT072VtYzm09tU7gvcsYh82ps3DAwBCECgcAJa1f958/Kjw8IxOJn+PYH7+0BEf+7EMkYgAAEIQMCQgPrldO/DDcNONJ9D4I7AsZOSPIEABCDQG4HmWECzsWTcmweZDXxH4HirQGbRZToQgEAyBDgW4D5UdwSOS5fdA8YiBCAAgUUEOBawiFC3P78jcI0J7qTsBpJeEIAABLoT0F+c7j096N6fng8ReE/gVjfZaEKqQAACEAhHgI0lvli/J3BsNPGFGrsQgAAE3iPAxhKPSfH+EiVXdnnEjWkIQAAC/xBgY4nfbHhP4JrhuNHEL3SsQwACEBARbizxnAbzBI4bTTyDxzwEIFA2gbqq/v3nj8vNby0fTwQeFLhnmxPeDecJOGYhAAEI8CLTMDkwp4I72xBR/wvjAqNAAAIQKIcAZ97CxfpBgePAd7gAMBIEIFAWAS5TDhfvBwWuGX51c8JzuHBxYCQIQKAAAixNhg3yXIHjPFzYQDAaBCCQNwGWJsPHd67AcfFy+GAwIgQgkC8BlibDx3auwF0vU16IyAfh3WJECEAAAvkQ4EB3P7FcIHDcS9lPWBgVAhDIiAAHunsK5uMC9+JsJEr91JNvDAsBCEAgdQKXdVWtc6C7nzA+KnAcF+gnKIwKAQjkQUBp+fb1q5XdPGaT3iweFbjZc7its0PR6rP0pobHEIAABPokwGtw+qTfjL1Q4J6/mGxrJf/t21HGhwAEIJAKAY4ExBGphQI3HJ0Pp4P69zjcxQsIQAAC8RPgSEAcMVoocLNlSm41iSNaeAEBCERPgCMB8YSolcCxTBlPwPAEAhCImIDSR6cvn65H7GFRrrUSOHZTFpUTTBYCEOhAgOduHaB57tJK4N4uU3Lo23MsMA8BCCRMgBeYxhe89gLHoe/4oodHEIBAHAS0/ur01dP9OJzBixsCrQXubRU34W5KcgcCEIDAXQI/n+6tjIASHwFTgWv+hvJlfNPAIwhAAAK9EOCeyV6wtxvUSOA+/vp8rarr39qZphUEIACBrAlcDqbVcLy/3Kxs8YmQgJHAXS9T8qbvCAOJSxCAQFACXKIcFHe3wcwFjs0m3UjTCwIQyIcAm0qSiKWxwF1XcWw2SSK8OAkBCLgmwE0lron6s9dJ4J5vTXa0lu/8uYVlCEAAAlESYMdklGF52KlOAscFzAlFGFchAAE3BLiGyw3HgFY6Cdz1MiVHBgIGiqEgAIFeCZwMptU6OyZ7jYHx4J0FjirOmDUdIACBNAlwHCDNuC1+4elj8+Jt34lGHbchAIG2BDgO0JZUhO06V3DNXJ5t/bWudPVrhPPCJQhAAAK2BBA3W4I997cSuNmzuK2zQ9Hqs57nwfAQgAAEHBPQX5zuPT1wbBRzAQlYCxxVXMBoMRQEIBCGAAe5w3D2PIq1wFHFeY4Q5iEAgbAEELewvD2O5kTgqOI8RgjTEIBAOAKIWzjWAUZyInCzKo43fgcIF0NAAALeCCBu3tD2ZdiZwHEurq8QMi4EIGBNAHGzRhijAWcC97aKm3C7SYxRxicIQGA+AcQt2+xwKnDD0fmT6aAei8gH2RJjYhCAQD4EELd8YvnATJwKXGOfNw1knS9MDgL5EEDc8onlnJk4F7hmnGebk7ES+SR7ekwQAhBIkwDilmbcDL32I3Bc4WUYBppDAALBCCBuwVD3PZAXgWsmxbGBvkPL+BCAwHsEELeiksKbwLHhpKg8YrIQiJ0AFyfHHiEP/nkTuMbX5y8m21rJfz34jUkIQAACbQkgbm1JZdbOq8DNlip520BmKcN0IJAUgZO6qkZ//rh8nJTXOOuEgHeBu77hpEkuzsY5CRlGIACBlgROBtNqfby/fNGyPc0yI+Bd4FiqzCxjmA4E0iDw82BabSNuaQTLl5dBBG62VMllzL5iiF0IQOAWAS3yw5u9lW2gQCCYwLGrkmSDAAS8E+AYgHfEKQ0QTOAaKLw3LqXUwFcIJEWAnZJJhSuMs0EFbvY8bmuyo7V8F2Z6jAIBCBRAoNlMsjHeX24ueucDgXcEggtcMzJHB8hACEDAEQE2kzgCmaOZXgSO53E5phJzgkBYAkrLt69freyGHZXRUiLQi8A1gD7++nytquvfUoKFrxCAQBQELrWqN968/OgwCm9wIloCvQncbKnyxdlIlPopWjo4BgEIxEVA6aPB1aB53sbh7bgiE6U3vQrcTOQ2J/si8mWUdHAKAhCIhoBS8v3rlys70TiEI9ET6F3gZiLHfZXRJwoOQqBHAixJ9gg/5aGjELjrTSfNevqnKcPEdwhAwDEBliQdAy3LXBQC1yDnUuayEo/ZQmARAXZJLiLEny8iEI3ANY5e76xsKjnePLAocvw5BPIlwCtu8o1t0JlFJXCIXNDYMxgEoiPQXJS8NK122CUZXWiSdCg6gWsocnwgyVzCaQh0JqBF/hBVjzjb1hkhHR8gEKXAIXLkKgTKIUDVVk6sQ880WoFD5EKnAuNBICwBqrawvEscLWqBQ+RKTEnmXAKB5tB2dVXt8qythGj3N8foBQ6R6y85GBkCzgkofVSrwfafPy4fO7eNQQjcI5CEwDU+X78s9YAjBOQwBJIkcKm07HD7f5KxS9bpZASuIcw5uWTzDMfLJsA728qOf2+zT0rgbkRO1fWBEvmkN2oMDAEItCFwolW9zdb/Nqho44NAcgLXQODuSh+pgE0IOCNwKVpvn7562rwphA8EeiOQpMD9I3J6X0R/3hs9BoYABO4QYHckCRETgWQF7gbis83JrhL5Jiao+AKBAgk0z9maK7bGBc6dKUdKIHmBa7heX+21yw7LSLMMt/IloPSRFr3Dc7Z8Q5zyzLIQuCYA1zssmzV/3imXckbiexoEELY04lS4l9kIHM/lCs9kph+EQHO9ltJ6hw0kQXAziCWBrATuhsXzF5NtrWSHJUvL7KA7BK4JIGykQooEshQ4lixTTEV8jpEAwhZjVPCpLYFsBe5dNbc12dFavmsLhHYQgICIKH0kWnZP95421+PxgUCSBLIXuCYqzT2Woqt9bj9JMkdxOiQBNo+EpM1YngkUIXANw+b2k3qp3qaa85xRmE+VAOfYUo0cfs8lUIzA3RCYHSfQ013R6jPyAgKFE7hUSnZ5L1vhWZDx9IsTuHfP5thpmXFaM7UFBE5E6122+pMnuRMoVuBuli2vBvUOV33lnubM75rAz3VV7fKyUfKhFAJFC9xNkIej8+F0abrPsmUpaV/OPJtt/pWW3aqu9sf7yxflzJyZQkAEgbuVBbO3hovaQej4aiRO4FJEDqjWEo8i7lsTQOAeQLi6ebahRTVvKeClqtYphoFwBNQvousDnq2FI85IcRNA4B6JT/OWAq1U84wOoYs7j0v27kRp2a/q6oBX1ZScBsz9IQIIXIu8YOmyBSSahCSAqIWkzVjJEkDgDEI3EzpdjUTkS4NuNIWACwIzUZsOqkN2QbrAiY0SCCBwHaLc7Lqsl+qR1rLNGws6AKRLWwJUam1J0Q4CDxBA4CzTYvY28UpG7Ly0BEn3hsCliDpsNooM6kHzTI1t/eQFBCwIIHAW8G53baq6q0HdVHQbbEpxBLUMMyda5FBUffDm5UeHZUyZWUIgDAEEzgPn5piBiNpoxI4lTA+AEzY5e79aI2haH1KlJRxIXE+CAALnOUyInWfAkZu/J2iHbOWPPGC4lxUBBC5gOK8PkK+zjBkQevihZkuOSuvjQT1A0MLzZ0QIvCOAwPWUDLOdmFW9oZVaF9Gf9+QGw1qcfUMlAAABPklEQVQQeFudqWOl9HEt9SHP0Cxg0hUCHgggcB6gdjHZnLGrpFrXotfZkdmFoN8+98Vs6WrpmF2OfpljHQK2BBA4W4Ke+s8Er67WmgpPi15jZ6Yn0O+bvRSlj7VWx5WW8f9X2cdUZsHYMxAEnBJA4Jzi9GdsODp/crV0tTar8rRaE9FDEfnU34iZW1b6SHR10Swv6lqPdaXHVGWZx5zpFUcAgUs85LPrw2o1VJUazoRP1U9Y4pwF9USUvphVYkoutNbHWukLRCzxhMd9CBgQQOAMYKXU9KbiU1o9Uaqp+ERmz/eaf2o1THHJc/YcTOnxLA5ajZWS2b/fiJdWSxfc05hSluIrBPwSQOD88o3e+sdfn68pffWkcfS2GN44rrUMRc2WQ51+VHMl1f1PLRfNM6/b/5vnX06xYwwCRRH4P+MltuoyLC5WAAAAAElFTkSuQmCC;" vertex="1" parent="9cq7SxsJMmVzWgC3gyxr-51">
          <mxGeometry x="451" y="168" width="92.56" height="65" as="geometry" />
        </mxCell>
        <mxCell id="9cq7SxsJMmVzWgC3gyxr-49" value="" style="endArrow=none;html=1;rounded=0;entryX=0.25;entryY=1;entryDx=0;entryDy=0;" edge="1" parent="9cq7SxsJMmVzWgC3gyxr-51" target="9cq7SxsJMmVzWgC3gyxr-37">
          <mxGeometry width="50" height="50" relative="1" as="geometry">
            <mxPoint x="330" y="557" as="sourcePoint" />
            <mxPoint x="415" y="369" as="targetPoint" />
          </mxGeometry>
        </mxCell>
        <mxCell id="9cq7SxsJMmVzWgC3gyxr-52" value="" style="endArrow=classic;html=1;rounded=0;" edge="1" parent="1" source="9cq7SxsJMmVzWgC3gyxr-15">
          <mxGeometry width="50" height="50" relative="1" as="geometry">
            <mxPoint x="335" y="444" as="sourcePoint" />
            <mxPoint x="401" y="276" as="targetPoint" />
          </mxGeometry>
        </mxCell>
        <mxCell id="9cq7SxsJMmVzWgC3gyxr-53" value="" style="group" vertex="1" connectable="0" parent="1">
          <mxGeometry x="26" y="10" width="30" height="60" as="geometry" />
        </mxCell>
        <mxCell id="9cq7SxsJMmVzWgC3gyxr-6" value="&lt;font style=&quot;font-size: 16px;&quot;&gt;Engineer&lt;/font&gt;" style="shape=umlActor;verticalLabelPosition=bottom;verticalAlign=top;html=1;outlineConnect=0;" vertex="1" parent="9cq7SxsJMmVzWgC3gyxr-53">
          <mxGeometry width="30" height="60" as="geometry" />
        </mxCell>
        <mxCell id="9cq7SxsJMmVzWgC3gyxr-8" style="edgeStyle=orthogonalEdgeStyle;rounded=0;orthogonalLoop=1;jettySize=auto;html=1;exitX=0.5;exitY=0.5;exitDx=0;exitDy=0;exitPerimeter=0;entryX=0;entryY=0.5;entryDx=0;entryDy=0;" edge="1" parent="1" source="9cq7SxsJMmVzWgC3gyxr-6" target="9cq7SxsJMmVzWgC3gyxr-3">
          <mxGeometry relative="1" as="geometry" />
        </mxCell>
        <mxCell id="9cq7SxsJMmVzWgC3gyxr-54" value="" style="group" vertex="1" connectable="0" parent="1">
          <mxGeometry x="147" y="4" width="103" height="108" as="geometry" />
        </mxCell>
        <mxCell id="9cq7SxsJMmVzWgC3gyxr-3" value="" style="shape=image;html=1;verticalAlign=top;verticalLabelPosition=bottom;labelBackgroundColor=#ffffff;imageAspect=0;aspect=fixed;image=https://cdn4.iconfinder.com/data/icons/social-media-and-logos-11/32/Logo_Github-128.png" vertex="1" parent="9cq7SxsJMmVzWgC3gyxr-54">
          <mxGeometry x="12.5" width="78" height="78" as="geometry" />
        </mxCell>
        <mxCell id="9cq7SxsJMmVzWgC3gyxr-9" value="&lt;font style=&quot;font-size: 15px;&quot;&gt;Github Action&lt;/font&gt;" style="text;html=1;align=center;verticalAlign=middle;resizable=0;points=[];autosize=1;strokeColor=none;fillColor=none;" vertex="1" parent="9cq7SxsJMmVzWgC3gyxr-54">
          <mxGeometry y="78" width="103" height="30" as="geometry" />
        </mxCell>
        <mxCell id="9cq7SxsJMmVzWgC3gyxr-55" value="" style="group" vertex="1" connectable="0" parent="1">
          <mxGeometry x="344" y="4" width="139" height="129" as="geometry" />
        </mxCell>
        <mxCell id="9cq7SxsJMmVzWgC3gyxr-19" value="&lt;font style=&quot;font-size: 18px;&quot;&gt;Build and Push&lt;/font&gt;" style="text;html=1;align=center;verticalAlign=middle;resizable=0;points=[];autosize=1;strokeColor=none;fillColor=none;strokeWidth=6;" vertex="1" parent="9cq7SxsJMmVzWgC3gyxr-55">
          <mxGeometry y="95" width="139" height="34" as="geometry" />
        </mxCell>
        <mxCell id="9cq7SxsJMmVzWgC3gyxr-15" value="" style="image;sketch=0;aspect=fixed;html=1;points=[];align=center;fontSize=12;image=img/lib/mscae/Docker.svg;" vertex="1" parent="9cq7SxsJMmVzWgC3gyxr-55">
          <mxGeometry x="9" width="108.54" height="89" as="geometry" />
        </mxCell>
        <mxCell id="9cq7SxsJMmVzWgC3gyxr-26" value="&lt;div style=&quot;font-size: 21px;&quot; data-ved=&quot;2ahUKEwiNtN-fusqFAxXbr1YBHYfDDNEQlcAGegQIOhAA&quot; data-hveid=&quot;CDoQAA&quot;&gt;&lt;div style=&quot;display: flex; padding: 12px 16px; border-bottom: 1px solid var(--gS5jXb);&quot; class=&quot;KsRP6&quot;&gt;&lt;div style=&quot;padding-top: 10px; flex-grow: 1;&quot; class=&quot;MDY31c Sb9BPb&quot;&gt;&lt;div style=&quot;align-items: center; display: flex;&quot; class=&quot;QpPSMb&quot;&gt;&lt;div style=&quot;&quot; class=&quot;DoxwDb&quot;&gt;&lt;div style=&quot;color: var(--YLNNHc); font-family: &amp;quot;Apple SD Gothic Neo&amp;quot;, arial, sans-serif; word-break: break-word; line-height: 32px;&quot; role=&quot;heading&quot; data-attrid=&quot;title&quot; aria-level=&quot;2&quot; class=&quot;PZPZlf ssJ7i xgAzOe&quot;&gt;&lt;font style=&quot;font-size: 21px;&quot;&gt;Continuous deployment&lt;/font&gt;&lt;/div&gt;&lt;/div&gt;&lt;/div&gt;&lt;/div&gt;&lt;/div&gt;&lt;/div&gt;&lt;div style=&quot;font-size: 21px;&quot;&gt;&lt;div style=&quot;margin: 0px;&quot; class=&quot;Kot7x&quot;&gt;&lt;div style=&quot;&quot; data-ved=&quot;2ahUKEwiNtN-fusqFAxXbr1YBHYfDDNEQydoBKAB6BAg4EAM&quot; data-hveid=&quot;CDgQAw&quot; id=&quot;kp-wp-tab-cont-overview&quot;&gt;&lt;div style=&quot;overflow: visible;&quot; class=&quot;xDKLO&quot;&gt;&lt;div style=&quot;&quot; data-ved=&quot;2ahUKEwiNtN-fusqFAxXbr1YBHYfDDNEQkt4BKAB6BAg5EAA&quot; data-hveid=&quot;CDkQAA&quot; id=&quot;kp-wp-tab-overview&quot;&gt;&lt;div style=&quot;margin-bottom: 0px;&quot; data-ved=&quot;2ahUKEwiNtN-fusqFAxXbr1YBHYfDDNEQ04gCKAB6BAhGEAA&quot; data-hveid=&quot;CEYQAA&quot; class=&quot;TzHB6b cLjAic LMRCfc&quot;&gt;&lt;div style=&quot;&quot;&gt;&lt;div style=&quot;&quot; class=&quot;sATSHe&quot;&gt;&lt;div style=&quot;&quot; data-hveid=&quot;CEMQAA&quot; class=&quot;yTFeqb wp-ms oJxARb nBWfrd i8qq8b&quot;&gt;&lt;div style=&quot;&quot; class=&quot;WFxqwc OTFaAf&quot;&gt;&lt;div style=&quot;display: flex; flex-direction: column;&quot; class=&quot;xGj8Mb&quot;&gt;&lt;div style=&quot;clear: none; padding-left: 15px; padding-right: 15px;&quot; data-ved=&quot;2ahUKEwiNtN-fusqFAxXbr1YBHYfDDNEQkCl6BAg7EAA&quot; data-hveid=&quot;CDsQAA&quot; data-md=&quot;50&quot; class=&quot;wDYxhc&quot;&gt;&lt;div style=&quot;overflow: hidden; margin: 13px 0px 6px; color: rgb(189, 193, 198);&quot; data-ved=&quot;2ahUKEwiNtN-fusqFAxXbr1YBHYfDDNEQmOEEKAB6BAg7EAE&quot; data-hveid=&quot;CDsQAQ&quot; data-attrid=&quot;description&quot; class=&quot;PZPZlf hb8SAc&quot;&gt;&lt;div style=&quot;&quot;&gt;&lt;div style=&quot;&quot; class=&quot;kno-rdesc&quot;&gt;&lt;div&gt;&lt;br&gt;&lt;/div&gt;&lt;span style=&quot;font-family: &amp;quot;Apple SD Gothic Neo&amp;quot;, arial, sans-serif; text-align: left; background-color: rgb(31, 31, 31); font-size: 14px;&quot;&gt;&lt;/span&gt;&lt;/div&gt;&lt;/div&gt;&lt;/div&gt;&lt;/div&gt;&lt;/div&gt;&lt;/div&gt;&lt;/div&gt;&lt;/div&gt;&lt;/div&gt;&lt;/div&gt;&lt;/div&gt;&lt;/div&gt;&lt;/div&gt;&lt;/div&gt;&lt;/div&gt;" style="text;html=1;align=center;verticalAlign=middle;resizable=0;points=[];autosize=1;strokeColor=none;fillColor=none;" vertex="1" parent="1">
          <mxGeometry x="274" y="99" width="267" height="122" as="geometry" />
        </mxCell>
      </root>
    </mxGraphModel>
  </diagram>
</mxfile>
